<svg width="1920" height="1057" viewBox="0 0 1920 1057" fill="none" xmlns="http://www.w3.org/2000/svg">
<path d="M812.121 426.5C690.424 84 62.5455 307 12.1212 0H1920V891.5C1844.36 822 1685.86 747.583 1366.3 872.5C1061.82 991.524 898.049 668.331 812.121 426.5Z" fill="url(#paint0_linear_2_9548)"/>
<path d="M687.52 389.974C554.479 141.353 361.1 185.463 292.849 0H1920V695.236C1730.58 695.236 1722.66 822.053 1357.67 805.512C1098.48 793.766 840.629 676.099 687.52 389.974Z" fill="url(#paint1_linear_2_9548)" fill-opacity="0.59"/>
<path d="M970.182 351C774.788 323.5 608 191 608 3H1920V489C1734.3 489 1606.3 867.5 1403.15 746.5C1235.39 646.581 1263.91 392.339 970.182 351Z" fill="url(#paint2_linear_2_9548)"/>
<path d="M98.707 888.796C139.546 973.267 76.2586 1048.34 1.53956e-05 1056.5V658.5C16.1761 785.724 53.48 795.249 98.707 888.796Z" fill="url(#paint3_linear_2_9548)" fill-opacity="0.7"/>
<path d="M44.7346 871.538C110.114 917.123 76.5916 1028.51 0 1037.5L2.50081e-05 899.483C29.1603 894.712 5.63326 844.276 44.7346 871.538Z" fill="url(#paint4_linear_2_9548)"/>
<defs>
<linearGradient id="paint0_linear_2_9548" x1="1005.51" y1="0" x2="1005.51" y2="897.985" gradientUnits="userSpaceOnUse">
<stop stop-color="#9039FF"/>
<stop offset="1" stop-color="#39B8FF"/>
</linearGradient>
<linearGradient id="paint1_linear_2_9548" x1="988.221" y1="-222.055" x2="1433.33" y2="649.336" gradientUnits="userSpaceOnUse">
<stop offset="0.354167" stop-color="#8DFFFF"/>
<stop offset="1" stop-color="#304CE1"/>
</linearGradient>
<linearGradient id="paint2_linear_2_9548" x1="1222.79" y1="-33" x2="1584.55" y2="602.076" gradientUnits="userSpaceOnUse">
<stop stop-color="#9584FF"/>
<stop offset="1" stop-color="#B556FF"/>
</linearGradient>
<linearGradient id="paint3_linear_2_9548" x1="41.2655" y1="697.62" x2="41.2655" y2="1013.98" gradientUnits="userSpaceOnUse">
<stop stop-color="#7A00F4"/>
<stop offset="1" stop-color="#10D4FF"/>
</linearGradient>
<linearGradient id="paint4_linear_2_9548" x1="41.4456" y1="661.753" x2="41.4456" y2="1010.1" gradientUnits="userSpaceOnUse">
<stop stop-color="#7A00F4"/>
<stop offset="1" stop-color="#10D4FF"/>
</linearGradient>
</defs>
</svg>
