<svg width="330" height="333" viewBox="0 0 330 333" fill="none" xmlns="http://www.w3.org/2000/svg">
<g opacity="0.2">
<path opacity="0.190476" d="M198.793 333C192.566 333 186.914 331.767 182.449 329.433L9.37648 238.973C3.41697 235.858 -0.000986218 230.929 2.13456e-07 225.45C2.13456e-07 219.445 4.11561 213.849 11.2919 210.1L109.513 158.761C115.149 155.816 122.197 154.194 129.36 154.194C135.587 154.194 141.239 155.427 145.704 157.761L318.776 248.221C324.736 251.336 328.153 256.265 328.153 261.743C328.153 267.748 324.037 273.343 316.862 277.094L218.64 328.433C213.004 331.378 205.956 333 198.793 333Z" fill="#9FA4D8"/>
<path opacity="0.255411" d="M109.946 159.44C115.567 156.503 122.649 154.929 129.735 155.001C132.595 155.033 135.315 155.365 137.843 155.898C140.567 156.473 143.738 157.639 145.929 158.784L318.343 248.9C324.275 252 327.367 256.912 327.008 262.25C326.909 263.725 326.526 265.159 325.969 266.569C324.465 270.383 320.199 274.445 315.351 276.979L218.523 327.588C217.294 328.231 215.671 328.963 214.313 329.47C209.657 331.207 204.362 332.183 199.002 332.209C192.872 332.239 187.272 331.049 182.882 328.754L9.80934 238.295C3.86446 235.187 0.788565 230.259 1.17736 224.916C1.26964 223.649 1.57439 222.413 1.99481 221.19C3.38427 217.15 7.80193 212.828 12.8872 210.171L109.946 159.44Z" fill="#9A9ED4"/>
<path opacity="0.320346" d="M110.379 160.119C115.986 157.189 123.102 155.664 130.111 155.808C132.963 155.872 135.659 156.274 138.153 156.831C140.597 157.378 144.183 158.776 146.154 159.807L317.91 249.579C323.814 252.664 326.589 257.554 325.864 262.756C325.668 264.164 325.172 265.513 324.582 266.875C323.114 270.268 318.203 274.583 313.84 276.863L218.407 326.744C217.3 327.322 215.489 328.157 214.269 328.619C209.698 330.351 204.488 331.367 199.212 331.419C193.179 331.478 187.63 330.331 183.315 328.075L10.2425 237.616C4.31238 234.516 1.5702 229.596 2.35511 224.382C2.53712 223.173 2.94762 222.009 3.40094 220.828C4.7825 217.23 9.90605 212.634 14.4829 210.242L110.379 160.119Z" fill="#9498CF"/>
<path opacity="0.385281" d="M110.812 160.798C116.404 157.876 123.555 156.399 130.487 156.615C133.331 156.71 136.001 157.183 138.463 157.764C140.628 158.276 144.627 159.914 146.379 160.83L317.477 250.258C323.352 253.329 325.818 258.192 324.719 263.263C324.429 264.602 323.819 265.864 323.195 267.181C321.784 270.157 316.207 274.721 312.329 276.748L218.29 325.899C217.307 326.413 215.307 327.352 214.225 327.769C209.739 329.495 204.613 330.55 199.421 330.628C193.486 330.717 187.988 329.613 183.748 327.396L10.6755 236.937C4.75987 233.844 2.34173 228.938 3.53247 223.847C3.80153 222.698 4.31904 221.608 4.80681 220.466C6.15525 217.308 12.01 212.439 16.0782 210.314L110.812 160.798Z" fill="#8F92CB"/>
<path opacity="0.450216" d="M111.245 161.477C116.823 158.562 124.007 157.133 130.862 157.421C133.7 157.549 136.342 158.091 138.773 158.698C140.66 159.169 145.071 161.052 146.605 161.853L317.044 250.937C322.891 253.993 325.059 258.828 323.575 263.77C323.193 265.039 322.469 266.211 321.808 267.486C320.479 270.052 314.211 274.858 310.818 276.632L218.174 325.055C217.313 325.505 215.126 326.549 214.182 326.918C209.78 328.64 204.739 329.733 199.63 329.837C193.793 329.956 188.346 328.894 184.181 326.717L11.1085 236.258C5.20757 233.173 3.10152 228.282 4.7101 223.313C5.06301 222.223 5.68885 221.212 6.21272 220.104C7.50044 217.38 14.114 212.245 17.6737 210.385L111.245 161.477Z" fill="#898CC7"/>
<path opacity="0.515152" d="M111.678 162.156C117.241 159.249 124.46 157.868 131.238 158.228C134.068 158.387 136.681 158.999 139.082 159.631C140.694 160.055 145.516 162.189 146.83 162.876L316.611 251.616C322.43 254.657 324.31 259.463 322.43 264.277C321.961 265.477 321.121 266.553 320.421 267.792C319.199 269.955 312.215 274.996 309.306 276.517L218.057 324.211C217.32 324.596 214.945 325.747 214.138 326.067C209.82 327.785 204.864 328.916 199.84 329.047C194.1 329.195 188.704 328.176 184.614 326.038L11.5413 235.579C5.65506 232.502 3.8477 227.626 5.88735 222.779C6.32105 221.748 7.05622 220.82 7.61846 219.742C8.81566 217.445 16.2177 212.051 19.2689 210.456L111.678 162.156Z" fill="#8486C3"/>
<path opacity="0.580087" d="M112.112 162.835C117.66 159.935 124.913 158.603 131.614 159.035C134.437 159.226 137.02 159.907 139.392 160.564C140.73 160.934 145.961 163.327 147.056 163.899L316.178 252.295C321.97 255.322 323.576 260.1 321.286 264.784C320.733 265.915 320.018 267.043 319.034 268.098C318.344 270.023 310.22 275.134 307.796 276.402L217.941 323.366C217.327 323.687 214.766 324.946 214.095 325.217C209.86 326.929 204.99 328.1 200.049 328.256C194.407 328.434 189.063 327.458 185.047 325.359L11.975 234.9C6.10323 231.83 4.58067 226.968 7.06548 222.244C7.57677 221.272 8.19557 220.297 9.02486 219.379C9.64983 217.34 18.3222 211.856 20.8648 210.528L112.112 162.835Z" fill="#7E7FBE"/>
<path opacity="0.645022" d="M112.544 163.514C118.078 160.622 125.365 159.337 131.989 159.842C134.805 160.065 137.356 160.814 139.702 161.497C140.767 161.807 146.405 164.464 147.281 164.922L315.745 252.973C321.508 255.986 322.853 260.743 320.141 265.29C319.507 266.354 318.708 267.416 317.647 268.403C317.094 269.944 308.224 275.272 306.284 276.286L217.824 322.521C217.333 322.778 214.586 324.146 214.051 324.366C209.899 326.074 205.115 327.283 200.258 327.465C194.714 327.673 189.42 326.74 185.48 324.68L12.4078 234.22C6.55059 231.159 5.2992 226.302 8.24268 221.71C8.82886 220.795 9.52795 219.876 10.4305 219.017C10.9305 217.386 20.426 211.662 22.46 210.599L112.544 163.514Z" fill="#7979BA"/>
<path opacity="0.709957" d="M112.978 164.193C118.497 161.309 125.818 160.072 132.365 160.649C135.173 160.903 137.692 161.721 140.012 162.43C140.807 162.673 146.849 165.602 147.506 165.945L315.312 253.652C321.047 256.65 322.142 261.394 318.997 265.797C318.284 266.795 317.397 267.79 316.26 268.709C315.846 269.864 306.228 275.41 304.774 276.171L217.708 321.677C217.339 321.87 214.408 323.348 214.008 323.516C209.938 325.219 205.241 326.466 200.468 326.675C195.021 326.912 189.779 326.022 185.913 324.001L12.841 233.542C6.99859 230.488 6.00602 225.627 9.42051 221.176C10.0792 220.317 10.8607 219.456 11.8368 218.655C12.2117 217.431 22.5302 211.467 24.0557 210.67L112.978 164.193Z" fill="#7373B6"/>
<path opacity="0.774892" d="M113.41 164.872C118.915 161.995 126.271 160.807 132.741 161.456C135.541 161.742 138.025 162.628 140.321 163.363C140.849 163.532 147.294 166.739 147.732 166.969L314.879 254.332C320.586 257.314 321.441 262.057 317.852 266.304C317.062 267.239 316.087 268.164 314.873 269.015C314.597 269.785 304.232 275.548 303.262 276.055L217.592 320.833C217.346 320.961 214.23 322.552 213.964 322.665C209.976 324.365 205.367 325.649 200.678 325.884C195.328 326.151 190.137 325.304 186.346 323.322L13.274 232.863C7.44616 229.817 6.70269 224.94 10.5979 220.642C11.3279 219.836 12.1932 219.035 13.2426 218.293C13.4926 217.477 24.634 211.273 25.6511 210.742L113.41 164.872Z" fill="#6E6DB2"/>
<path opacity="0.839827" d="M113.844 165.551C119.334 162.682 126.724 161.542 133.116 162.263C135.91 162.581 138.358 163.534 140.631 164.297C140.894 164.385 147.738 167.877 147.957 167.992L314.446 255.011C320.125 257.979 320.747 262.732 316.707 266.811C315.842 267.685 314.776 268.538 313.486 269.321C313.348 269.706 302.236 275.686 301.751 275.94L217.475 319.988C217.352 320.053 214.053 321.757 213.92 321.815C210.014 323.511 205.492 324.833 200.887 325.093C195.635 325.391 190.495 324.586 186.779 322.644L13.7071 232.184C7.8938 229.145 7.39279 224.238 11.7754 220.107C12.5758 219.353 13.5257 218.614 14.6486 217.93C14.7735 217.523 26.738 211.079 27.2466 210.813L113.844 165.551Z" fill="#6867AD"/>
<path opacity="0.904762" d="M187.212 321.964L14.1399 231.505C7.30534 227.932 8.16249 221.693 16.0543 217.568L114.276 166.23C122.168 162.105 134.106 161.657 140.941 165.23L314.013 255.689C320.848 259.262 319.99 265.501 312.099 269.626L213.877 320.964C205.985 325.089 194.047 325.537 187.212 321.964Z" fill="#6361A9"/>
</g>
<path d="M187.212 321.82L14.1399 231.361C11.0943 229.769 9.57609 227.647 9.52707 225.419C9.52551 225.348 9.52551 217.729 9.52693 217.657C9.58156 214.949 11.7918 219.652 16.0542 217.424L114.276 166.086C122.168 161.962 134.106 161.514 140.941 165.086L314.013 255.546C316.295 256.738 317.949 251.676 318.541 253.286C318.738 253.822 318.613 260.923 318.626 261.479C318.691 264.253 316.478 267.193 312.099 269.482L213.877 320.82C205.985 324.945 194.047 325.393 187.212 321.82Z" fill="url(#paint0_linear_901_195)"/>
<path d="M187.212 314.203L14.1399 223.743C7.30534 220.171 8.16249 213.931 16.0543 209.806L114.276 158.469C122.168 154.344 134.106 153.896 140.941 157.468L314.013 247.928C320.848 251.5 319.99 257.74 312.099 261.864L213.877 313.202C205.985 317.327 194.047 317.775 187.212 314.203Z" fill="url(#paint1_linear_901_195)"/>
<path d="M312.099 260.571L213.877 311.908C205.985 316.033 194.047 316.481 187.212 312.909L14.14 222.449C11.3046 220.968 9.81315 219.025 9.57841 216.966C9.22353 219.494 10.7155 221.953 14.14 223.743L187.212 314.203C194.047 317.775 205.985 317.327 213.877 313.202L312.099 261.864C316.716 259.451 318.906 256.315 318.575 253.411C318.221 255.928 316.036 258.513 312.099 260.571Z" fill="white"/>
<path d="M217.969 280.881L77.4258 207.423C74.6115 205.952 74.9645 203.383 78.2141 201.685L130.98 174.105C134.23 172.407 139.145 172.223 141.959 173.693L282.503 247.151C285.317 248.622 284.964 251.191 281.714 252.89L228.948 280.469C225.699 282.167 220.783 282.352 217.969 280.881Z" fill="url(#paint2_linear_901_195)"/>
<path d="M134.057 180.65L143.063 185.357C144.208 185.956 146.059 185.959 147.197 185.364C148.336 184.769 148.33 183.802 147.184 183.203L138.178 178.496C137.033 177.897 135.182 177.894 134.044 178.489C132.906 179.084 132.911 180.051 134.057 180.65ZM149.477 188.71L153.743 190.94C154.888 191.538 156.739 191.541 157.877 190.946C159.016 190.351 159.01 189.384 157.864 188.785L153.598 186.555C152.453 185.957 150.602 185.954 149.464 186.549C148.326 187.144 148.331 188.111 149.477 188.71ZM160.157 194.292L164.423 196.522C165.568 197.12 167.419 197.123 168.557 196.528C169.696 195.934 169.69 194.966 168.544 194.367L164.278 192.138C163.133 191.539 161.282 191.536 160.144 192.131C159.006 192.726 159.011 193.693 160.157 194.292ZM170.837 199.874L175.103 202.104C176.248 202.702 178.099 202.705 179.237 202.11C180.375 201.516 180.37 200.548 179.224 199.949L174.958 197.72C173.813 197.121 171.962 197.118 170.824 197.713C169.686 198.308 169.691 199.275 170.837 199.874ZM181.517 205.456L185.783 207.686C186.928 208.284 188.779 208.287 189.917 207.693C191.055 207.098 191.05 206.13 189.904 205.531L185.638 203.302C184.493 202.703 182.642 202.7 181.504 203.295C180.366 203.89 180.371 204.857 181.517 205.456ZM192.197 211.038L196.463 213.268C197.608 213.866 199.459 213.87 200.597 213.275C201.735 212.68 201.73 211.712 200.584 211.114L196.318 208.884C195.173 208.285 193.322 208.282 192.184 208.877C191.046 209.472 191.051 210.439 192.197 211.038ZM202.877 216.62L207.143 218.85C208.288 219.449 210.139 219.452 211.277 218.857C212.415 218.262 212.41 217.294 211.264 216.696L206.998 214.466C205.853 213.867 204.002 213.864 202.864 214.459C201.725 215.054 201.731 216.022 202.877 216.62ZM213.557 222.202L217.823 224.432C218.968 225.031 220.819 225.034 221.957 224.439C223.095 223.844 223.09 222.876 221.944 222.278L217.678 220.048C216.533 219.449 214.682 219.446 213.544 220.041C212.405 220.636 212.411 221.604 213.557 222.202ZM224.237 227.784L228.503 230.014C229.648 230.613 231.499 230.616 232.637 230.021C233.775 229.426 233.77 228.459 232.624 227.86L228.358 225.63C227.213 225.032 225.362 225.029 224.224 225.623C223.085 226.218 223.091 227.186 224.237 227.784ZM234.917 233.367L239.183 235.596C240.328 236.195 242.179 236.198 243.317 235.603C244.455 235.008 244.45 234.041 243.304 233.442L239.038 231.212C237.893 230.614 236.042 230.611 234.904 231.205C233.765 231.8 233.771 232.768 234.917 233.367ZM245.596 238.949L249.863 241.178C251.008 241.777 252.859 241.78 253.997 241.185C255.135 240.59 255.13 239.623 253.984 239.024L249.718 236.794C248.573 236.196 246.722 236.193 245.584 236.788C244.445 237.382 244.451 238.35 245.596 238.949ZM256.276 244.531L260.543 246.76C261.688 247.359 263.539 247.362 264.677 246.767C265.815 246.172 265.809 245.205 264.664 244.606L260.398 242.376C259.253 241.778 257.402 241.775 256.264 242.37C255.125 242.965 255.131 243.932 256.276 244.531ZM267.179 250.229L271.445 252.459C272.59 253.057 274.441 253.06 275.579 252.466C276.718 251.871 276.712 250.903 275.566 250.304L271.3 248.075C270.155 247.476 268.304 247.473 267.166 248.068C266.028 248.663 266.033 249.63 267.179 250.229ZM124.451 185.97L128.144 187.9C129.448 188.582 131.555 188.585 132.85 187.908L136.52 185.99C137.816 185.313 137.809 184.212 136.505 183.53L132.812 181.6C131.509 180.919 129.402 180.915 128.107 181.592L124.436 183.511C123.141 184.188 123.148 185.289 124.451 185.97ZM143.53 193.49L147.2 191.572C148.495 190.895 148.489 189.794 147.185 189.112L143.492 187.182C142.189 186.501 140.082 186.497 138.787 187.174L135.116 189.093C133.821 189.77 133.828 190.871 135.131 191.552L138.824 193.483C140.128 194.164 142.235 194.167 143.53 193.49ZM145.811 197.134L149.504 199.065C150.808 199.746 152.915 199.749 154.21 199.072L157.88 197.154C159.175 196.477 159.169 195.376 157.865 194.695L154.172 192.764C152.869 192.083 150.762 192.079 149.467 192.757L145.796 194.675C144.501 195.352 144.507 196.453 145.811 197.134ZM156.491 202.716L160.184 204.647C161.488 205.328 163.595 205.331 164.89 204.655L168.56 202.736C169.855 202.059 169.849 200.958 168.545 200.277L164.852 198.346C163.549 197.665 161.442 197.662 160.147 198.339L156.476 200.257C155.181 200.934 155.188 202.035 156.491 202.716ZM179.225 205.859L175.532 203.928C174.229 203.247 172.122 203.244 170.827 203.921L167.156 205.839C165.861 206.516 165.867 207.617 167.171 208.298L170.864 210.229C172.168 210.91 174.274 210.914 175.57 210.237L179.24 208.318C180.535 207.641 180.529 206.54 179.225 205.859ZM189.905 211.441L186.212 209.511C184.909 208.829 182.802 208.826 181.507 209.503L177.836 211.421C176.541 212.098 176.547 213.199 177.851 213.881L181.544 215.811C182.848 216.492 184.954 216.496 186.25 215.819L189.92 213.9C191.215 213.223 191.209 212.122 189.905 211.441ZM200.585 217.023L196.892 215.093C195.589 214.411 193.482 214.408 192.186 215.085L188.516 217.003C187.221 217.68 187.227 218.781 188.531 219.463L192.224 221.393C193.528 222.074 195.634 222.078 196.93 221.401L200.6 219.482C201.895 218.805 201.889 217.704 200.585 217.023ZM211.265 222.605L207.572 220.675C206.268 219.993 204.162 219.99 202.866 220.667L199.196 222.585C197.901 223.262 197.907 224.364 199.211 225.045L202.904 226.975C204.208 227.656 206.314 227.66 207.61 226.983L211.28 225.065C212.575 224.388 212.569 223.286 211.265 222.605ZM221.945 228.187L218.252 226.257C216.948 225.575 214.842 225.572 213.546 226.249L209.876 228.167C208.581 228.845 208.587 229.946 209.891 230.627L213.584 232.557C214.888 233.239 216.994 233.242 218.29 232.565L221.96 230.647C223.255 229.97 223.249 228.868 221.945 228.187ZM232.625 233.769L228.932 231.839C227.628 231.158 225.522 231.154 224.226 231.831L220.556 233.75C219.261 234.427 219.267 235.528 220.571 236.209L224.264 238.139C225.568 238.821 227.674 238.824 228.97 238.147L232.64 236.229C233.935 235.552 233.929 234.451 232.625 233.769ZM231.251 241.791L234.944 243.722C236.248 244.403 238.354 244.406 239.65 243.729L243.32 241.811C244.615 241.134 244.609 240.033 243.305 239.351L239.612 237.421C238.308 236.74 236.202 236.736 234.906 237.413L231.236 239.332C229.941 240.009 229.947 241.11 231.251 241.791ZM253.985 244.933L250.292 243.003C248.988 242.322 246.882 242.318 245.586 242.995L241.916 244.914C240.621 245.591 240.627 246.692 241.931 247.373L245.624 249.304C246.928 249.985 249.034 249.988 250.33 249.311L254 247.393C255.295 246.716 255.289 245.615 253.985 244.933ZM269.627 253.109L261.194 248.701C259.891 248.02 257.784 248.017 256.488 248.694L252.818 250.612C251.523 251.289 251.529 252.39 252.833 253.071L261.266 257.479C262.57 258.161 264.677 258.164 265.972 257.487L269.642 255.569C270.937 254.892 270.931 253.791 269.627 253.109ZM114.559 191.14L122.992 195.548C124.296 196.23 126.403 196.233 127.698 195.556L131.368 193.638C132.664 192.961 132.657 191.859 131.354 191.178L122.92 186.77C121.617 186.089 119.51 186.085 118.215 186.763L114.544 188.681C113.249 189.358 113.256 190.459 114.559 191.14ZM129.979 199.2L133.672 201.13C134.976 201.812 137.083 201.815 138.378 201.138L142.048 199.22C143.344 198.543 143.337 197.442 142.034 196.76L138.34 194.83C137.037 194.149 134.93 194.145 133.635 194.822L129.964 196.74C128.669 197.418 128.676 198.519 129.979 199.2ZM144.352 206.712C145.656 207.394 147.763 207.397 149.058 206.72L152.728 204.802C154.024 204.125 154.017 203.024 152.714 202.342L149.02 200.412C147.717 199.731 145.61 199.727 144.315 200.404L140.644 202.323C139.349 203 139.356 204.101 140.659 204.782L144.352 206.712ZM155.032 212.295C156.336 212.976 158.443 212.979 159.738 212.302L163.408 210.384C164.704 209.707 164.697 208.606 163.393 207.924L159.7 205.994C158.397 205.313 156.29 205.309 154.995 205.986L151.324 207.905C150.029 208.582 150.036 209.683 151.339 210.364L155.032 212.295ZM165.675 211.568L162.004 213.487C160.709 214.164 160.716 215.265 162.019 215.946L165.712 217.877C167.016 218.558 169.123 218.561 170.418 217.884L174.088 215.966C175.383 215.289 175.377 214.188 174.073 213.506L170.38 211.576C169.077 210.895 166.97 210.891 165.675 211.568ZM176.58 217.033L172.459 219.187C171.288 219.799 171.294 220.794 172.472 221.41L176.619 223.577C177.797 224.193 179.701 224.196 180.872 223.584L184.994 221.43C186.165 220.818 186.159 219.823 184.981 219.207L180.833 217.04C179.655 216.424 177.751 216.421 176.58 217.033ZM187.26 222.615L183.139 224.769C181.968 225.381 181.974 226.376 183.152 226.992L187.299 229.16C188.477 229.775 190.381 229.778 191.552 229.167L195.674 227.012C196.844 226.4 196.839 225.405 195.66 224.789L191.513 222.622C190.335 222.006 188.431 222.003 187.26 222.615ZM197.94 228.197L193.818 230.351C192.648 230.963 192.654 231.958 193.832 232.574L197.979 234.742C199.157 235.357 201.061 235.361 202.232 234.749L206.354 232.594C207.524 231.982 207.519 230.987 206.34 230.371L202.193 228.204C201.015 227.588 199.111 227.585 197.94 228.197ZM208.62 233.779L204.498 235.933C203.328 236.545 203.334 237.54 204.512 238.156L208.659 240.324C209.837 240.939 211.741 240.943 212.912 240.331L217.034 238.176C218.204 237.565 218.199 236.569 217.021 235.954L212.873 233.786C211.695 233.17 209.791 233.167 208.62 233.779ZM219.3 239.361L215.178 241.515C214.008 242.127 214.014 243.122 215.192 243.738L219.339 245.906C220.517 246.522 222.421 246.525 223.592 245.913L227.714 243.759C228.884 243.147 228.878 242.151 227.7 241.536L223.553 239.368C222.375 238.752 220.471 238.749 219.3 239.361ZM234.272 251.495L238.394 249.341C239.564 248.729 239.558 247.734 238.38 247.118L234.233 244.95C233.055 244.334 231.151 244.331 229.98 244.943L225.858 247.097C224.688 247.709 224.694 248.704 225.872 249.32L230.019 251.488C231.197 252.104 233.101 252.107 234.272 251.495ZM244.952 257.077L249.074 254.923C250.244 254.311 250.238 253.316 249.06 252.7L244.913 250.532C243.735 249.916 241.831 249.913 240.66 250.525L236.538 252.679C235.368 253.291 235.374 254.287 236.552 254.902L240.699 257.07C241.877 257.686 243.781 257.689 244.952 257.077ZM259.963 258.398L255.815 256.23C254.637 255.615 252.733 255.612 251.562 256.223L247.441 258.378C246.27 258.99 246.276 259.985 247.454 260.6L251.601 262.768C252.779 263.384 254.683 263.387 255.854 262.775L259.976 260.621C261.147 260.009 261.141 259.014 259.963 258.398ZM104.44 196.192L117.831 203.191C119.009 203.807 120.913 203.81 122.083 203.198L126.205 201.044C127.376 200.432 127.37 199.436 126.192 198.821L112.801 191.822C111.623 191.206 109.719 191.203 108.548 191.815L104.427 193.969C103.256 194.581 103.262 195.576 104.44 196.192ZM124.363 206.605L128.511 208.773C129.689 209.389 131.593 209.392 132.763 208.78L136.885 206.626C138.056 206.014 138.05 205.019 136.872 204.403L132.724 202.235C131.546 201.619 129.642 201.616 128.471 202.228L124.35 204.382C123.179 204.994 123.185 205.989 124.363 206.605ZM135.043 212.187L139.191 214.355C140.369 214.971 142.273 214.974 143.443 214.362L147.565 212.208C148.736 211.596 148.73 210.601 147.552 209.985L143.404 207.817C142.226 207.201 140.322 207.198 139.151 207.81L135.03 209.964C133.859 210.576 133.865 211.572 135.043 212.187ZM145.723 217.769L149.87 219.937C151.048 220.553 152.953 220.556 154.123 219.944L158.245 217.79C159.416 217.178 159.41 216.183 158.232 215.567L154.084 213.399C152.906 212.783 151.002 212.78 149.831 213.392L145.71 215.547C144.539 216.158 144.545 217.154 145.723 217.769ZM164.803 225.526L168.925 223.372C170.096 222.76 170.09 221.765 168.912 221.149L164.764 218.981C163.586 218.366 161.682 218.363 160.511 218.974L156.39 221.129C155.219 221.741 155.225 222.736 156.403 223.351L160.55 225.519C161.729 226.135 163.633 226.138 164.803 225.526ZM175.483 231.108L179.605 228.954C180.776 228.342 180.77 227.347 179.592 226.731L175.444 224.563C174.266 223.948 172.362 223.945 171.191 224.556L167.07 226.711C165.899 227.323 165.905 228.318 167.083 228.934L171.23 231.101C172.408 231.717 174.313 231.72 175.483 231.108ZM186.163 236.69L190.285 234.536C191.456 233.924 191.45 232.929 190.272 232.313L186.124 230.145C184.946 229.53 183.042 229.527 181.871 230.139L177.75 232.293C176.579 232.905 176.585 233.9 177.763 234.516L181.91 236.683C183.088 237.299 184.992 237.302 186.163 236.69ZM196.843 242.273L200.965 240.118C202.135 239.506 202.13 238.511 200.952 237.895L196.804 235.728C195.626 235.112 193.722 235.109 192.551 235.721L188.43 237.875C187.259 238.487 187.265 239.482 188.443 240.098L192.59 242.266C193.768 242.881 195.672 242.884 196.843 242.273ZM207.523 247.855L211.645 245.7C212.816 245.088 212.809 244.093 211.631 243.478L207.484 241.31C206.306 240.694 204.402 240.691 203.231 241.303L199.109 243.457C197.939 244.069 197.945 245.064 199.123 245.68L203.27 247.848C204.448 248.463 206.352 248.466 207.523 247.855ZM218.203 253.437L222.325 251.282C223.495 250.671 223.489 249.675 222.311 249.06L218.164 246.892C216.986 246.276 215.082 246.273 213.911 246.885L209.789 249.039C208.619 249.651 208.625 250.646 209.803 251.262L213.95 253.43C215.128 254.045 217.032 254.049 218.203 253.437ZM220.483 256.844L224.63 259.012C225.808 259.628 227.712 259.631 228.883 259.019L233.005 256.865C234.175 256.253 234.169 255.257 232.991 254.642L228.844 252.474C227.666 251.858 225.762 251.855 224.591 252.467L220.469 254.621C219.299 255.233 219.305 256.228 220.483 256.844ZM250.071 263.568L239.524 258.056C238.346 257.44 236.442 257.437 235.271 258.049L231.149 260.203C229.979 260.815 229.985 261.81 231.163 262.426L241.709 267.939C242.887 268.554 244.791 268.557 245.962 267.946L250.084 265.791C251.255 265.179 251.249 264.184 250.071 263.568ZM94.5888 201.63L113.589 211.56C114.919 212.256 117.07 212.259 118.393 211.568L121.965 209.701C123.287 209.01 123.281 207.886 121.95 207.19L102.95 197.26C101.619 196.564 99.4684 196.561 98.1459 197.252L94.5738 199.119C93.2513 199.81 93.2581 200.934 94.5888 201.63ZM120.674 215.264L124.269 217.142C125.599 217.838 127.75 217.842 129.073 217.15L132.645 215.283C133.967 214.592 133.96 213.468 132.63 212.772L129.035 210.894C127.704 210.198 125.554 210.195 124.231 210.886L120.659 212.753C119.337 213.444 119.343 214.568 120.674 215.264ZM131.354 220.846L134.949 222.725C136.279 223.42 138.43 223.424 139.753 222.733L143.325 220.865C144.647 220.174 144.64 219.05 143.31 218.355L139.715 216.476C138.384 215.78 136.234 215.777 134.911 216.468L131.339 218.335C130.017 219.026 130.023 220.15 131.354 220.846ZM142.034 226.428L145.629 228.307C146.959 229.002 149.11 229.006 150.433 228.315L154.005 226.448C155.327 225.756 155.32 224.632 153.99 223.937L150.395 222.058C149.064 221.362 146.913 221.359 145.591 222.05L142.019 223.917C140.697 224.608 140.703 225.732 142.034 226.428ZM152.714 232.01L156.309 233.889C157.639 234.584 159.79 234.588 161.113 233.897L164.685 232.03C166.007 231.338 166 230.214 164.67 229.519L161.075 227.64C159.744 226.944 157.594 226.941 156.271 227.632L152.699 229.499C151.377 230.19 151.383 231.314 152.714 232.01ZM163.394 237.592L166.989 239.471C168.319 240.166 170.47 240.17 171.793 239.479L175.365 237.612C176.687 236.921 176.68 235.796 175.35 235.101L171.755 233.222C170.424 232.527 168.273 232.523 166.951 233.214L163.379 235.081C162.056 235.772 162.063 236.897 163.394 237.592ZM174.074 243.174L177.668 245.053C178.999 245.749 181.15 245.752 182.473 245.061L186.045 243.194C187.367 242.503 187.36 241.379 186.03 240.683L182.435 238.804C181.104 238.109 178.953 238.105 177.631 238.796L174.059 240.663C172.736 241.355 172.743 242.479 174.074 243.174ZM184.754 248.756L188.348 250.635C189.679 251.331 191.83 251.334 193.153 250.643L196.725 248.776C198.047 248.085 198.04 246.961 196.71 246.265L193.115 244.386C191.784 243.691 189.633 243.687 188.311 244.378L184.739 246.245C183.416 246.937 183.423 248.061 184.754 248.756ZM195.434 254.338L199.028 256.217C200.359 256.913 202.51 256.916 203.833 256.225L207.405 254.358C208.727 253.667 208.72 252.543 207.39 251.847L203.795 249.968C202.464 249.273 200.313 249.269 198.991 249.96L195.419 251.828C194.096 252.519 194.103 253.643 195.434 254.338ZM206.114 259.921L209.708 261.799C211.039 262.495 213.19 262.498 214.512 261.807L218.085 259.94C219.407 259.249 219.4 258.125 218.07 257.429L214.475 255.55C213.144 254.855 210.993 254.851 209.671 255.543L206.099 257.41C204.776 258.101 204.783 259.225 206.114 259.921ZM216.794 265.503L220.388 267.381C221.719 268.077 223.87 268.08 225.192 267.389L228.764 265.522C230.087 264.831 230.08 263.707 228.75 263.011L225.155 261.133C223.824 260.437 221.673 260.433 220.351 261.125L216.779 262.992C215.456 263.683 215.463 264.807 216.794 265.503ZM239.667 268.717L236.072 266.839C234.741 266.143 232.59 266.139 231.268 266.831L227.696 268.698C226.373 269.389 226.38 270.513 227.711 271.209L231.305 273.087C232.636 273.783 234.787 273.787 236.109 273.095L239.682 271.228C241.004 270.537 240.997 269.413 239.667 268.717ZM101.393 206.786L93.0579 202.43C91.7272 201.734 89.5763 201.731 88.2539 202.422L84.6818 204.289C83.3594 204.98 83.366 206.105 84.6969 206.8L93.0315 211.156C94.3622 211.852 96.513 211.855 97.8355 211.164L101.408 209.297C102.73 208.606 102.723 207.482 101.393 206.786ZM112.073 212.368L108.478 210.49C107.147 209.794 104.996 209.79 103.674 210.482L100.102 212.349C98.7793 213.04 98.7861 214.164 100.117 214.86L103.711 216.738C105.042 217.434 107.193 217.437 108.515 216.746L112.088 214.879C113.41 214.188 113.403 213.064 112.073 212.368ZM122.753 217.95L119.158 216.072C117.827 215.376 115.676 215.373 114.354 216.064L110.782 217.931C109.459 218.622 109.466 219.746 110.797 220.442L114.391 222.321C115.722 223.016 117.873 223.02 119.195 222.328L122.768 220.461C124.09 219.77 124.083 218.646 122.753 217.95ZM197.512 257.025L129.838 221.654C128.507 220.958 126.356 220.955 125.034 221.646L121.462 223.513C120.139 224.204 120.146 225.328 121.477 226.024L189.151 261.395C190.482 262.091 192.633 262.094 193.955 261.403L197.527 259.536C198.85 258.845 198.843 257.721 197.512 257.025ZM208.192 262.607L204.598 260.728C203.267 260.033 201.116 260.029 199.794 260.721L196.222 262.588C194.899 263.279 194.906 264.403 196.237 265.099L199.831 266.977C201.162 267.673 203.313 267.676 204.635 266.985L208.207 265.118C209.53 264.427 209.523 263.303 208.192 262.607ZM218.872 268.189L215.278 266.311C213.947 265.615 211.796 265.612 210.474 266.303L206.902 268.17C205.579 268.861 205.586 269.985 206.917 270.681L210.511 272.559C211.842 273.255 213.993 273.258 215.315 272.567L218.887 270.7C220.21 270.009 220.203 268.885 218.872 268.189ZM229.774 273.888L226.18 272.009C224.849 271.313 222.698 271.31 221.376 272.001L217.804 273.868C216.481 274.559 216.488 275.683 217.819 276.379L221.413 278.258C222.744 278.953 224.895 278.957 226.217 278.265L229.789 276.398C231.112 275.707 231.105 274.583 229.774 273.888Z" fill="#CED3F4"/>
<path d="M313.842 247.682L135.979 154.829C129.868 151.635 124.914 143.066 124.914 135.69V11.4514C124.914 4.07515 129.868 0.684847 135.979 3.87879L313.842 96.7315C319.953 99.9256 324.907 108.494 324.907 115.87V240.109C324.907 247.485 319.953 250.876 313.842 247.682Z" fill="url(#paint3_linear_901_195)"/>
<path d="M315.268 241.92L139.088 149.958C134.171 147.129 131.129 141.475 131.129 135.69V10.9074C131.129 9.53672 132.776 8.68538 134.083 9.37789C134.235 9.45862 134.355 9.52229 134.43 9.56084L310.734 101.602C316.588 104.657 318.693 110.086 318.693 115.871V240.391C318.693 241.861 316.937 242.782 315.527 242.055C315.415 241.997 315.326 241.951 315.268 241.92Z" fill="url(#paint4_linear_901_195)"/>
<path d="M310.734 101.602L134.429 9.56084C134.355 9.52229 134.234 9.45852 134.082 9.37789C132.776 8.68538 131.128 9.53672 131.128 10.9074V135.69C131.128 141.475 134.17 147.129 139.088 149.958L315.267 241.92C315.326 241.951 315.415 241.997 315.526 242.055C316.937 242.782 318.693 241.861 318.693 240.391V115.871C318.693 110.085 316.588 104.657 310.734 101.602ZM317.45 240.391C317.45 240.88 316.994 241.184 316.572 241.184C316.424 241.184 316.278 241.148 316.141 241.077L139.709 148.984C135.269 146.428 132.371 141.2 132.371 135.69V10.9074C132.371 10.5058 132.746 10.257 133.094 10.257C133.218 10.257 133.339 10.2878 133.455 10.3487L310.111 102.576C316.177 105.741 317.45 111.553 317.45 115.871V240.391Z" fill="white"/>
<path d="M318.935 94.0548L141.071 1.20219C138.654 -0.0614354 136.417 -0.294629 134.597 0.341878C134.365 0.423011 129.324 3.07539 129.106 3.18427C129.106 3.18427 129.096 3.19033 129.09 3.19315C130.981 2.36139 133.372 2.51638 135.979 3.8788L313.842 96.7316C319.953 99.9254 324.907 108.494 324.907 115.871V240.109C324.907 244.713 322.977 247.763 320.041 248.63C320.281 248.642 320.579 248.557 321.011 248.331C321.151 248.258 326.456 245.379 326.589 245.294C328.691 243.962 330 241.224 330 237.433V113.194C330 105.818 325.046 97.2489 318.935 94.0548Z" fill="url(#paint5_linear_901_195)"/>
<path d="M318.842 94.1104L140.978 1.25789C138.561 -0.00584951 136.324 -0.238943 134.504 0.397571C134.272 0.478697 129.324 3.07538 129.106 3.18426C129.106 3.18426 129.096 3.19031 129.09 3.19314C130.981 2.36138 133.372 2.51637 135.979 3.87879L313.842 96.7316C319.953 99.9254 324.907 108.494 324.907 115.871V240.109C324.907 244.713 322.977 247.763 320.041 248.63C320.28 248.642 320.579 248.557 321.011 248.331C321.15 248.258 326.363 245.435 326.496 245.35C328.598 244.018 329.907 241.279 329.907 237.488V113.249C329.907 105.873 324.953 97.3045 318.842 94.1104Z" fill="url(#paint6_linear_901_195)"/>
<path d="M318.749 94.1662L140.885 1.31353C138.467 0.0498903 136.231 -0.183303 134.411 0.453211C134.179 0.534337 129.324 3.07542 129.106 3.1843C129.106 3.1843 129.096 3.19036 129.09 3.19318C130.981 2.36142 133.372 2.51641 135.979 3.87883L313.842 96.7317C319.953 99.9254 324.907 108.494 324.907 115.871V240.109C324.907 244.713 322.977 247.763 320.041 248.63C320.281 248.642 320.579 248.557 321.011 248.331C321.151 248.258 326.27 245.491 326.403 245.406C328.505 244.073 329.814 241.335 329.814 237.544V113.305C329.814 105.929 324.86 97.3602 318.749 94.1662Z" fill="url(#paint7_linear_901_195)"/>
<path d="M318.656 94.2217L140.792 1.36921C138.374 0.105475 136.138 -0.12761 134.317 0.508896C134.086 0.589922 129.324 3.07541 129.106 3.18428C129.106 3.18428 129.096 3.19034 129.09 3.19317C130.981 2.36141 133.372 2.5164 135.979 3.87881L313.842 96.7317C319.953 99.9254 324.907 108.494 324.907 115.871V240.109C324.907 244.713 322.977 247.763 320.041 248.63C320.281 248.642 320.579 248.557 321.011 248.331C321.15 248.258 326.176 245.546 326.31 245.461C328.412 244.129 329.72 241.391 329.72 237.599V113.361C329.72 105.984 324.766 97.4158 318.656 94.2217Z" fill="url(#paint8_linear_901_195)"/>
<path d="M318.562 94.2775L140.699 1.42485C138.281 0.161215 136.045 -0.0719703 134.224 0.564536C133.993 0.645662 129.324 3.07545 129.106 3.18433C129.106 3.18433 129.096 3.19039 129.09 3.19321C130.981 2.36145 133.372 2.51644 135.979 3.87886L313.842 96.7317C319.953 99.9254 324.907 108.494 324.907 115.871V240.109C324.907 244.713 322.977 247.763 320.041 248.63C320.28 248.642 320.579 248.557 321.011 248.331C321.15 248.258 326.083 245.602 326.216 245.517C328.318 244.185 329.627 241.446 329.627 237.655V113.416C329.627 106.04 324.673 97.4715 318.562 94.2775Z" fill="url(#paint9_linear_901_195)"/>
<path d="M318.469 94.3332L140.605 1.48066C138.188 0.216925 135.951 -0.0161599 134.131 0.620346C133.899 0.701372 129.324 3.07556 129.106 3.18444C129.106 3.18444 129.096 3.1905 129.09 3.19332C130.981 2.36156 133.372 2.51655 135.979 3.87897L313.842 96.7318C319.953 99.9255 324.907 108.494 324.907 115.871V240.11C324.907 244.713 322.977 247.763 320.041 248.63C320.281 248.642 320.579 248.557 321.011 248.331C321.15 248.258 325.99 245.658 326.123 245.573C328.225 244.24 329.534 241.502 329.534 237.711V113.472C329.534 106.096 324.58 97.5272 318.469 94.3332Z" fill="url(#paint10_linear_901_195)"/>
<path d="M318.376 94.3887L140.512 1.53605C138.095 0.272427 135.858 0.0392338 134.038 0.67574C133.806 0.756866 129.324 3.07536 129.106 3.18423C129.106 3.18423 129.096 3.19029 129.09 3.19312C130.981 2.36136 133.372 2.51635 135.979 3.87876L313.842 96.7316C319.953 99.9254 324.907 108.494 324.907 115.871V240.109C324.907 244.713 322.977 247.763 320.041 248.63C320.28 248.642 320.579 248.557 321.011 248.331C321.15 248.258 325.897 245.713 326.03 245.628C328.132 244.296 329.441 241.558 329.441 237.766V113.528C329.441 106.151 324.487 97.5826 318.376 94.3887Z" fill="url(#paint11_linear_901_195)"/>
<path d="M318.283 94.4444L140.419 1.59187C138.002 0.328137 135.765 0.0950443 133.945 0.73155C133.713 0.812576 129.324 3.07547 129.106 3.18435C129.106 3.18435 129.096 3.19041 129.09 3.19323C130.981 2.36147 133.372 2.51646 135.979 3.87888L313.842 96.7317C319.953 99.9255 324.907 108.494 324.907 115.871V240.109C324.907 244.713 322.977 247.763 320.041 248.63C320.281 248.642 320.579 248.557 321.011 248.331C321.15 248.258 325.803 245.769 325.937 245.684C328.039 244.352 329.348 241.613 329.348 237.822V113.583C329.348 106.207 324.394 97.6385 318.283 94.4444Z" fill="url(#paint12_linear_901_195)"/>
<path d="M318.19 94.5002L140.326 1.6475C137.908 0.383877 135.672 0.150684 133.851 0.78719C133.62 0.868324 129.324 3.07551 129.106 3.18439C129.106 3.18439 129.096 3.19045 129.09 3.19327C130.981 2.36151 133.372 2.5165 135.979 3.87892L313.842 96.7318C319.953 99.9255 324.907 108.494 324.907 115.871V240.109C324.907 244.713 322.977 247.763 320.041 248.63C320.28 248.642 320.579 248.557 321.011 248.331C321.15 248.258 325.71 245.825 325.844 245.74C327.946 244.407 329.254 241.669 329.254 237.878V113.639C329.254 106.263 324.3 97.6941 318.19 94.5002Z" fill="url(#paint13_linear_901_195)"/>
<path d="M318.097 94.5557L140.233 1.7031C137.815 0.439468 135.579 0.206375 133.758 0.842889C133.527 0.923915 129.324 3.0755 129.106 3.18438C129.106 3.18438 129.096 3.19044 129.09 3.19326C130.981 2.3615 133.372 2.5165 135.979 3.87891L313.842 96.7317C319.953 99.9255 324.907 108.494 324.907 115.871V240.109C324.907 244.713 322.977 247.763 320.041 248.63C320.281 248.642 320.579 248.557 321.011 248.331C321.151 248.258 325.617 245.88 325.751 245.795C327.853 244.463 329.161 241.725 329.161 237.933V113.695C329.161 106.318 324.207 97.7498 318.097 94.5557Z" fill="url(#paint14_linear_901_195)"/>
<path d="M318.003 94.6112L140.14 1.75859C137.722 0.494959 135.485 0.261766 133.665 0.898279C133.433 0.979405 129.324 3.07529 129.106 3.18417C129.106 3.18417 129.096 3.19023 129.09 3.19306C130.981 2.3613 133.372 2.51629 135.979 3.8787L313.842 96.7315C319.953 99.9253 324.907 108.494 324.907 115.87V240.109C324.907 244.712 322.977 247.762 320.041 248.63C320.28 248.641 320.579 248.557 321.011 248.331C321.15 248.258 325.524 245.936 325.657 245.851C327.759 244.518 329.068 241.78 329.068 237.989V113.75C329.068 106.374 324.114 97.8052 318.003 94.6112Z" fill="url(#paint15_linear_901_195)"/>
<path d="M317.91 94.6668L140.046 1.81418C137.629 0.550548 135.392 0.317463 133.572 0.953969C133.34 1.03499 129.324 3.07529 129.106 3.18416C129.106 3.18416 129.096 3.19022 129.09 3.19305C130.981 2.36129 133.372 2.51628 135.979 3.87869L313.842 96.7315C319.953 99.9253 324.907 108.494 324.907 115.87V240.109C324.907 244.712 322.977 247.762 320.041 248.63C320.281 248.641 320.579 248.557 321.011 248.331C321.15 248.258 325.431 245.991 325.564 245.906C327.666 244.574 328.975 241.836 328.975 238.044V113.806C328.975 106.429 324.021 97.8608 317.91 94.6668Z" fill="url(#paint16_linear_901_195)"/>
<path d="M317.817 94.7224L139.953 1.86982C137.536 0.606086 135.299 0.373 133.479 1.00951C133.247 1.09063 129.324 3.07523 129.106 3.1841C129.106 3.1841 129.096 3.19016 129.09 3.19299C130.981 2.36123 133.372 2.51622 135.979 3.87863L313.842 96.7315C319.953 99.9252 324.907 108.494 324.907 115.87V240.109C324.907 244.712 322.977 247.762 320.041 248.629C320.281 248.641 320.579 248.557 321.011 248.331C321.15 248.258 325.338 246.047 325.471 245.962C327.573 244.629 328.882 241.891 328.882 238.1V113.861C328.882 106.485 323.928 97.9164 317.817 94.7224Z" fill="url(#paint17_linear_901_195)"/>
<path d="M317.724 94.7782L139.86 1.92556C137.442 0.66192 135.206 0.428735 133.385 1.06534C133.154 1.14637 129.324 3.07536 129.106 3.18424C129.106 3.18424 129.096 3.1903 129.09 3.19313C130.981 2.36136 133.372 2.51636 135.979 3.87877L313.842 96.7316C319.953 99.9254 324.907 108.494 324.907 115.871V240.109C324.907 244.713 322.977 247.763 320.041 248.63C320.281 248.642 320.579 248.557 321.011 248.331C321.15 248.258 325.244 246.103 325.378 246.018C327.48 244.685 328.788 241.947 328.788 238.156V113.917C328.788 106.541 323.835 97.9722 317.724 94.7782Z" fill="url(#paint18_linear_901_195)"/>
<path d="M317.631 94.8339L139.767 1.98127C137.349 0.717536 135.113 0.48445 133.292 1.12096C133.061 1.20208 129.324 3.07538 129.106 3.18426C129.106 3.18426 129.096 3.19032 129.09 3.19314C130.981 2.36138 133.372 2.51637 135.979 3.87879L313.842 96.7316C319.953 99.9254 324.907 108.494 324.907 115.871V240.109C324.907 244.713 322.977 247.763 320.041 248.63C320.28 248.642 320.579 248.557 321.011 248.331C321.15 248.258 325.151 246.158 325.285 246.073C327.386 244.741 328.695 242.003 328.695 238.211V113.973C328.695 106.596 323.741 98.0278 317.631 94.8339Z" fill="url(#paint19_linear_901_195)"/>
<path d="M317.537 94.8896L139.674 2.03691C137.256 0.773281 135.019 0.540088 133.199 1.17659C132.968 1.25772 129.324 3.07542 129.106 3.1843C129.106 3.1843 129.096 3.19036 129.09 3.19318C130.981 2.36142 133.372 2.51641 135.979 3.87883L313.842 96.7317C319.953 99.9254 324.907 108.494 324.907 115.871V240.109C324.907 244.713 322.977 247.763 320.041 248.63C320.281 248.642 320.579 248.557 321.011 248.331C321.15 248.258 325.058 246.214 325.191 246.129C327.293 244.797 328.602 242.059 328.602 238.267V114.028C328.602 106.652 323.648 98.0836 317.537 94.8896Z" fill="url(#paint20_linear_901_195)"/>
<path d="M317.444 94.945L139.58 2.09248C137.163 0.828748 134.926 0.595655 133.106 1.23216C132.874 1.31329 129.324 3.07529 129.106 3.18417C129.106 3.18417 129.096 3.19023 129.09 3.19305C130.981 2.36129 133.372 2.51628 135.979 3.8787L313.842 96.7315C319.953 99.9253 324.907 108.494 324.907 115.87V240.109C324.907 244.712 322.977 247.762 320.041 248.63C320.281 248.641 320.579 248.557 321.011 248.331C321.15 248.258 324.965 246.269 325.098 246.185C327.2 244.852 328.509 242.114 328.509 238.323V114.084C328.509 106.708 323.555 98.1391 317.444 94.945Z" fill="url(#paint21_linear_901_195)"/>
<path d="M317.351 95.0009L139.487 2.14824C137.07 0.88461 134.833 0.651416 133.013 1.28792C132.781 1.36906 129.324 3.07545 129.106 3.18433C129.106 3.18433 129.096 3.19039 129.09 3.19321C130.981 2.36145 133.372 2.51645 135.979 3.87886L313.842 96.7317C319.953 99.9254 324.907 108.494 324.907 115.871V240.109C324.907 244.713 322.977 247.763 320.041 248.63C320.28 248.642 320.579 248.557 321.011 248.331C321.15 248.258 324.872 246.325 325.005 246.24C327.107 244.908 328.416 242.17 328.416 238.379V114.14C328.416 106.764 323.462 98.1949 317.351 95.0009Z" fill="url(#paint22_linear_901_195)"/>
<path d="M317.258 95.0564L139.394 2.20393C136.976 0.940195 134.74 0.707102 132.92 1.34362C132.688 1.42474 129.324 3.07544 129.106 3.18432C129.106 3.18432 129.096 3.19038 129.09 3.1932C130.981 2.36144 133.372 2.51643 135.979 3.87885L313.842 96.7317C319.953 99.9254 324.907 108.494 324.907 115.871V240.109C324.907 244.713 322.977 247.763 320.041 248.63C320.281 248.642 320.579 248.557 321.011 248.331C321.151 248.258 324.778 246.381 324.912 246.296C327.014 244.964 328.323 242.225 328.323 238.434V114.195C328.323 106.819 323.369 98.2505 317.258 95.0564Z" fill="url(#paint23_linear_901_195)"/>
<path d="M317.165 95.1122L139.301 2.25957C136.883 0.995935 134.647 0.762742 132.826 1.39926C132.595 1.48038 129.324 3.07548 129.106 3.18436C129.106 3.18436 129.096 3.19042 129.09 3.19324C130.981 2.36148 133.372 2.51647 135.979 3.87889L313.842 96.7317C319.953 99.9255 324.907 108.494 324.907 115.871V240.109C324.907 244.713 322.977 247.763 320.041 248.63C320.28 248.642 320.579 248.557 321.011 248.331C321.15 248.258 324.685 246.437 324.819 246.352C326.921 245.019 328.229 242.281 328.229 238.49V114.251C328.229 106.875 323.275 98.3062 317.165 95.1122Z" fill="url(#paint24_linear_901_195)"/>
<path d="M317.071 95.1678L139.208 2.31526C136.79 1.05152 134.554 0.818435 132.733 1.45494C132.502 1.53597 129.324 3.07547 129.106 3.18435C129.106 3.18435 129.096 3.19041 129.09 3.19323C130.981 2.36147 133.372 2.51646 135.979 3.87888L313.842 96.7317C319.953 99.9255 324.907 108.494 324.907 115.871V240.109C324.907 244.713 322.977 247.763 320.041 248.63C320.281 248.642 320.579 248.557 321.011 248.331C321.15 248.258 324.592 246.492 324.726 246.408C326.827 245.075 328.136 242.337 328.136 238.546V114.307C328.136 106.93 323.182 98.3618 317.071 95.1678Z" fill="url(#paint25_linear_901_195)"/>
<path d="M316.978 95.2234L139.115 2.37077C136.697 1.10714 134.46 0.873953 132.64 1.51046C132.408 1.59158 129.324 3.07539 129.106 3.18427C129.106 3.18427 129.096 3.19033 129.09 3.19315C130.981 2.36139 133.372 2.51638 135.979 3.8788L313.842 96.7316C319.953 99.9254 324.907 108.494 324.907 115.871V240.109C324.907 244.713 322.977 247.763 320.041 248.63C320.28 248.642 320.579 248.557 321.011 248.331C321.15 248.258 324.499 246.548 324.632 246.463C326.734 245.13 328.043 242.392 328.043 238.601V114.362C328.043 106.986 323.089 98.4174 316.978 95.2234Z" fill="url(#paint26_linear_901_195)"/>
<path d="M314.373 96.4914L136.51 3.63863C134.004 2.32878 131.7 2.14211 129.845 2.86761C131.428 2.64047 133.246 2.98708 135.182 3.99916L313.046 96.8519C319.157 100.046 324.111 108.614 324.111 115.991V240.229C324.111 244.581 322.379 247.529 319.71 248.573C323.124 248.083 325.438 244.908 325.438 239.869V115.63C325.438 108.254 320.484 99.6853 314.373 96.4914Z" fill="white"/>
<defs>
<linearGradient id="paint0_linear_901_195" x1="23.7912" y1="243.453" x2="345.086" y2="243.453" gradientUnits="userSpaceOnUse">
<stop stop-color="#CDD2F3"/>
<stop offset="0.434343" stop-color="#E5E9FF"/>
<stop offset="0.483426" stop-color="#EFF2FF"/>
<stop offset="0.535354" stop-color="white"/>
<stop offset="0.590454" stop-color="#EBEDF9"/>
<stop offset="0.702449" stop-color="#B9BFE8"/>
<stop offset="0.722222" stop-color="#AFB6E5"/>
<stop offset="0.909091" stop-color="#AFB6E5"/>
<stop offset="0.950338" stop-color="#BAC0EA"/>
<stop offset="1" stop-color="#CDD2F3"/>
</linearGradient>
<linearGradient id="paint1_linear_901_195" x1="164.076" y1="155.056" x2="164.076" y2="316.614" gradientUnits="userSpaceOnUse">
<stop offset="0.03125" stop-color="white"/>
<stop offset="0.932292" stop-color="white" stop-opacity="0"/>
</linearGradient>
<linearGradient id="paint2_linear_901_195" x1="168.697" y1="244.463" x2="273.821" y2="48.9268" gradientUnits="userSpaceOnUse">
<stop stop-color="#AFB6E5"/>
<stop offset="0.144913" stop-color="#B6BCE8"/>
<stop offset="0.348524" stop-color="#C8CDF1"/>
<stop offset="0.580808" stop-color="#E5E9FF"/>
<stop offset="0.855112" stop-color="#F5F6FF"/>
<stop offset="1" stop-color="white"/>
</linearGradient>
<linearGradient id="paint3_linear_901_195" x1="-13.8884" y1="78.338" x2="418.351" y2="183.119" gradientUnits="userSpaceOnUse">
<stop stop-color="#AFB6E5"/>
<stop offset="0.144913" stop-color="#B6BCE8"/>
<stop offset="0.348524" stop-color="#C8CDF1"/>
<stop offset="0.580808" stop-color="#E5E9FF"/>
<stop offset="0.855112" stop-color="#F5F6FF"/>
<stop offset="1" stop-color="white"/>
</linearGradient>
<linearGradient id="paint4_linear_901_195" x1="224.911" y1="9.13184" x2="224.911" y2="242.309" gradientUnits="userSpaceOnUse">
<stop stop-color="#B792FF"/>
<stop offset="1" stop-color="#B792FF" stop-opacity="0"/>
</linearGradient>
<linearGradient id="paint5_linear_901_195" x1="185.882" y1="-23.6354" x2="312.829" y2="257.308" gradientUnits="userSpaceOnUse">
<stop stop-color="#B3BAE7"/>
<stop offset="0.191919" stop-color="#B7BDE9"/>
<stop offset="0.282828" stop-color="#BAC0E9"/>
<stop offset="0.409091" stop-color="#AFB6E5"/>
<stop offset="0.909091" stop-color="#AFB6E5"/>
<stop offset="1" stop-color="#B3BAE7"/>
</linearGradient>
<linearGradient id="paint6_linear_901_195" x1="185.838" y1="-23.6021" x2="312.78" y2="257.329" gradientUnits="userSpaceOnUse">
<stop stop-color="#B4BBE8"/>
<stop offset="0.191919" stop-color="#B9BEEA"/>
<stop offset="0.282828" stop-color="#BCC2EA"/>
<stop offset="0.409091" stop-color="#B2B8E6"/>
<stop offset="0.434343" stop-color="#B2B8E6"/>
<stop offset="0.535354" stop-color="#B3B9E6"/>
<stop offset="0.722222" stop-color="#AFB6E5"/>
<stop offset="0.909091" stop-color="#AFB6E5"/>
<stop offset="1" stop-color="#B4BBE8"/>
</linearGradient>
<linearGradient id="paint7_linear_901_195" x1="185.794" y1="-23.5689" x2="312.731" y2="257.351" gradientUnits="userSpaceOnUse">
<stop stop-color="#B5BCE8"/>
<stop offset="0.191919" stop-color="#BAC0EA"/>
<stop offset="0.282828" stop-color="#BDC3EB"/>
<stop offset="0.409091" stop-color="#B4BBE7"/>
<stop offset="0.434343" stop-color="#B4BBE7"/>
<stop offset="0.535354" stop-color="#B7BDE7"/>
<stop offset="0.722222" stop-color="#AFB6E5"/>
<stop offset="0.909091" stop-color="#AFB6E5"/>
<stop offset="1" stop-color="#B5BCE8"/>
</linearGradient>
<linearGradient id="paint8_linear_901_195" x1="185.751" y1="-23.5356" x2="312.682" y2="257.373" gradientUnits="userSpaceOnUse">
<stop stop-color="#B7BDE9"/>
<stop offset="0.191919" stop-color="#BCC1EB"/>
<stop offset="0.282828" stop-color="#BFC5EC"/>
<stop offset="0.409091" stop-color="#B7BDE9"/>
<stop offset="0.434343" stop-color="#B7BDE9"/>
<stop offset="0.535354" stop-color="#BAC0E9"/>
<stop offset="0.722222" stop-color="#AFB6E5"/>
<stop offset="0.909091" stop-color="#AFB6E5"/>
<stop offset="1" stop-color="#B7BDE9"/>
</linearGradient>
<linearGradient id="paint9_linear_901_195" x1="185.707" y1="-23.5024" x2="312.634" y2="257.395" gradientUnits="userSpaceOnUse">
<stop stop-color="#B8BFE9"/>
<stop offset="0.191919" stop-color="#BDC3EC"/>
<stop offset="0.282828" stop-color="#C1C6EC"/>
<stop offset="0.409091" stop-color="#B9C0EA"/>
<stop offset="0.434343" stop-color="#B9C0EA"/>
<stop offset="0.535354" stop-color="#BEC4EA"/>
<stop offset="0.722222" stop-color="#AFB6E5"/>
<stop offset="0.909091" stop-color="#AFB6E5"/>
<stop offset="1" stop-color="#B8BFE9"/>
</linearGradient>
<linearGradient id="paint10_linear_901_195" x1="185.664" y1="-23.469" x2="312.585" y2="257.417" gradientUnits="userSpaceOnUse">
<stop stop-color="#B9C0EA"/>
<stop offset="0.191919" stop-color="#BFC4ED"/>
<stop offset="0.282828" stop-color="#C2C8ED"/>
<stop offset="0.409091" stop-color="#BCC2EB"/>
<stop offset="0.434343" stop-color="#BCC2EB"/>
<stop offset="0.535354" stop-color="#C2C7EB"/>
<stop offset="0.722222" stop-color="#AFB6E5"/>
<stop offset="0.909091" stop-color="#AFB6E5"/>
<stop offset="1" stop-color="#B9C0EA"/>
</linearGradient>
<linearGradient id="paint11_linear_901_195" x1="185.62" y1="-23.436" x2="312.536" y2="257.438" gradientUnits="userSpaceOnUse">
<stop stop-color="#BAC1EA"/>
<stop offset="0.191919" stop-color="#C0C6ED"/>
<stop offset="0.282828" stop-color="#C4C9EE"/>
<stop offset="0.409091" stop-color="#BEC4EC"/>
<stop offset="0.434343" stop-color="#BEC5EC"/>
<stop offset="0.535354" stop-color="#C6CBEC"/>
<stop offset="0.697978" stop-color="#B2B9E6"/>
<stop offset="0.722222" stop-color="#AFB6E5"/>
<stop offset="0.909091" stop-color="#AFB6E5"/>
<stop offset="0.999026" stop-color="#BAC1EA"/>
<stop offset="1" stop-color="#BAC1EA"/>
</linearGradient>
<linearGradient id="paint12_linear_901_195" x1="185.576" y1="-23.4026" x2="312.487" y2="257.46" gradientUnits="userSpaceOnUse">
<stop stop-color="#BCC2EB"/>
<stop offset="0.191919" stop-color="#C2C7EE"/>
<stop offset="0.282828" stop-color="#C6CBEF"/>
<stop offset="0.409091" stop-color="#C1C7ED"/>
<stop offset="0.434343" stop-color="#C1C7EE"/>
<stop offset="0.535354" stop-color="#CACEEE"/>
<stop offset="0.67677" stop-color="#B6BDE7"/>
<stop offset="0.722222" stop-color="#AFB6E5"/>
<stop offset="0.909091" stop-color="#AFB6E5"/>
<stop offset="0.988063" stop-color="#BAC0EA"/>
<stop offset="1" stop-color="#BCC2EB"/>
</linearGradient>
<linearGradient id="paint13_linear_901_195" x1="185.533" y1="-23.3694" x2="312.439" y2="257.482" gradientUnits="userSpaceOnUse">
<stop stop-color="#BDC3EC"/>
<stop offset="0.191919" stop-color="#C4C9EF"/>
<stop offset="0.282828" stop-color="#C7CDF0"/>
<stop offset="0.409091" stop-color="#C3C9EF"/>
<stop offset="0.434343" stop-color="#C4C9EF"/>
<stop offset="0.535354" stop-color="#CDD2EF"/>
<stop offset="0.664367" stop-color="#B9C0E8"/>
<stop offset="0.722222" stop-color="#AFB6E5"/>
<stop offset="0.909091" stop-color="#AFB6E5"/>
<stop offset="0.983634" stop-color="#BAC0EA"/>
<stop offset="1" stop-color="#BDC3EC"/>
</linearGradient>
<linearGradient id="paint14_linear_901_195" x1="185.489" y1="-23.3362" x2="312.39" y2="257.504" gradientUnits="userSpaceOnUse">
<stop stop-color="#BEC4EC"/>
<stop offset="0.191919" stop-color="#C5CAEF"/>
<stop offset="0.282828" stop-color="#C9CEF1"/>
<stop offset="0.409091" stop-color="#C6CBF0"/>
<stop offset="0.434343" stop-color="#C6CCF0"/>
<stop offset="0.528907" stop-color="#D0D4F0"/>
<stop offset="0.535354" stop-color="#D1D5F0"/>
<stop offset="0.651042" stop-color="#BDC3EA"/>
<stop offset="0.722222" stop-color="#AFB6E5"/>
<stop offset="0.909091" stop-color="#AFB6E5"/>
<stop offset="0.979741" stop-color="#BAC0EA"/>
<stop offset="1" stop-color="#BEC4EC"/>
</linearGradient>
<linearGradient id="paint15_linear_901_195" x1="185.445" y1="-23.3032" x2="312.341" y2="257.526" gradientUnits="userSpaceOnUse">
<stop stop-color="#BFC5ED"/>
<stop offset="0.191919" stop-color="#C7CCF0"/>
<stop offset="0.282828" stop-color="#CBD0F2"/>
<stop offset="0.409091" stop-color="#C8CEF1"/>
<stop offset="0.434343" stop-color="#C9CEF1"/>
<stop offset="0.522825" stop-color="#D3D7F1"/>
<stop offset="0.535354" stop-color="#D5D9F1"/>
<stop offset="0.640349" stop-color="#C1C7EB"/>
<stop offset="0.722222" stop-color="#AFB6E5"/>
<stop offset="0.909091" stop-color="#AFB6E5"/>
<stop offset="0.976277" stop-color="#BAC0EA"/>
<stop offset="1" stop-color="#BFC5ED"/>
</linearGradient>
<linearGradient id="paint16_linear_901_195" x1="185.402" y1="-23.27" x2="312.292" y2="257.547" gradientUnits="userSpaceOnUse">
<stop stop-color="#C1C7ED"/>
<stop offset="0.191919" stop-color="#C8CDF1"/>
<stop offset="0.282828" stop-color="#CCD1F2"/>
<stop offset="0.409091" stop-color="#CBD0F2"/>
<stop offset="0.434343" stop-color="#CBD1F3"/>
<stop offset="0.513" stop-color="#D5D9F3"/>
<stop offset="0.535354" stop-color="#D9DCF3"/>
<stop offset="0.631578" stop-color="#C5CAEC"/>
<stop offset="0.722222" stop-color="#AFB6E5"/>
<stop offset="0.909091" stop-color="#AFB6E5"/>
<stop offset="0.970393" stop-color="#BAC0EA"/>
<stop offset="1" stop-color="#C1C7ED"/>
</linearGradient>
<linearGradient id="paint17_linear_901_195" x1="185.358" y1="-23.2369" x2="312.243" y2="257.569" gradientUnits="userSpaceOnUse">
<stop stop-color="#C2C8EE"/>
<stop offset="0.191919" stop-color="#CACFF2"/>
<stop offset="0.282828" stop-color="#CED3F3"/>
<stop offset="0.409091" stop-color="#CDD3F3"/>
<stop offset="0.434343" stop-color="#CED3F4"/>
<stop offset="0.508968" stop-color="#D8DCF4"/>
<stop offset="0.535354" stop-color="#DDE0F4"/>
<stop offset="0.624483" stop-color="#C9CEEE"/>
<stop offset="0.722222" stop-color="#AFB6E5"/>
<stop offset="0.909091" stop-color="#AFB6E5"/>
<stop offset="0.967865" stop-color="#BAC0EA"/>
<stop offset="1" stop-color="#C2C8EE"/>
</linearGradient>
<linearGradient id="paint18_linear_901_195" x1="185.315" y1="-23.2036" x2="312.195" y2="257.591" gradientUnits="userSpaceOnUse">
<stop stop-color="#C3C9EE"/>
<stop offset="0.191919" stop-color="#CBD0F2"/>
<stop offset="0.282828" stop-color="#D0D4F4"/>
<stop offset="0.409091" stop-color="#D0D5F4"/>
<stop offset="0.434343" stop-color="#D0D6F5"/>
<stop offset="0.502167" stop-color="#DADEF5"/>
<stop offset="0.535354" stop-color="#E1E3F5"/>
<stop offset="0.618241" stop-color="#CDD1EF"/>
<stop offset="0.722222" stop-color="#AFB6E5"/>
<stop offset="0.909091" stop-color="#AFB6E5"/>
<stop offset="0.96557" stop-color="#BAC0EA"/>
<stop offset="1" stop-color="#C3C9EE"/>
</linearGradient>
<linearGradient id="paint19_linear_901_195" x1="185.271" y1="-23.1704" x2="312.146" y2="257.613" gradientUnits="userSpaceOnUse">
<stop stop-color="#C4CAEF"/>
<stop offset="0.191919" stop-color="#CDD2F3"/>
<stop offset="0.282828" stop-color="#D1D6F5"/>
<stop offset="0.409091" stop-color="#D2D7F6"/>
<stop offset="0.434343" stop-color="#D3D8F6"/>
<stop offset="0.502167" stop-color="#DDE1F6"/>
<stop offset="0.535354" stop-color="#E4E7F6"/>
<stop offset="0.614153" stop-color="#D0D5F0"/>
<stop offset="0.722222" stop-color="#AFB6E5"/>
<stop offset="0.909091" stop-color="#AFB6E5"/>
<stop offset="0.963464" stop-color="#BAC0EA"/>
<stop offset="1" stop-color="#C4CAEF"/>
</linearGradient>
<linearGradient id="paint20_linear_901_195" x1="185.227" y1="-23.1373" x2="312.097" y2="257.635" gradientUnits="userSpaceOnUse">
<stop stop-color="#C6CBF0"/>
<stop offset="0.191919" stop-color="#CFD3F4"/>
<stop offset="0.282828" stop-color="#D3D8F6"/>
<stop offset="0.409091" stop-color="#D5DAF7"/>
<stop offset="0.434343" stop-color="#D6DAF8"/>
<stop offset="0.499268" stop-color="#E0E3F8"/>
<stop offset="0.535354" stop-color="#E8EAF8"/>
<stop offset="0.609325" stop-color="#D4D8F1"/>
<stop offset="0.722222" stop-color="#AFB6E5"/>
<stop offset="0.909091" stop-color="#AFB6E5"/>
<stop offset="0.959748" stop-color="#BAC0EA"/>
<stop offset="1" stop-color="#C6CBF0"/>
</linearGradient>
<linearGradient id="paint21_linear_901_195" x1="185.184" y1="-23.1042" x2="312.048" y2="257.657" gradientUnits="userSpaceOnUse">
<stop stop-color="#C7CCF0"/>
<stop offset="0.191919" stop-color="#D0D5F4"/>
<stop offset="0.282828" stop-color="#D5D9F7"/>
<stop offset="0.409091" stop-color="#D7DCF8"/>
<stop offset="0.434343" stop-color="#D8DDF9"/>
<stop offset="0.494246" stop-color="#E2E6F9"/>
<stop offset="0.535354" stop-color="#ECEEF9"/>
<stop offset="0.605082" stop-color="#D8DCF3"/>
<stop offset="0.722222" stop-color="#AFB6E5"/>
<stop offset="0.909091" stop-color="#AFB6E5"/>
<stop offset="0.958094" stop-color="#BAC0EA"/>
<stop offset="1" stop-color="#C7CCF0"/>
</linearGradient>
<linearGradient id="paint22_linear_901_195" x1="185.14" y1="-23.071" x2="312" y2="257.679" gradientUnits="userSpaceOnUse">
<stop stop-color="#C8CDF1"/>
<stop offset="0.191919" stop-color="#D2D6F5"/>
<stop offset="0.282828" stop-color="#D6DBF8"/>
<stop offset="0.409091" stop-color="#DADEF9"/>
<stop offset="0.434343" stop-color="#DBDFFA"/>
<stop offset="0.492054" stop-color="#E5E8FA"/>
<stop offset="0.535354" stop-color="#F0F1FA"/>
<stop offset="0.601339" stop-color="#DCDFF4"/>
<stop offset="0.722222" stop-color="#AFB6E5"/>
<stop offset="0.909091" stop-color="#AFB6E5"/>
<stop offset="0.956563" stop-color="#BAC0EA"/>
<stop offset="1" stop-color="#C8CDF1"/>
</linearGradient>
<linearGradient id="paint23_linear_901_195" x1="185.096" y1="-23.0379" x2="311.951" y2="257.7" gradientUnits="userSpaceOnUse">
<stop stop-color="#C9CFF1"/>
<stop offset="0.191919" stop-color="#D3D8F6"/>
<stop offset="0.282828" stop-color="#D8DCF8"/>
<stop offset="0.409091" stop-color="#DCE1FA"/>
<stop offset="0.434343" stop-color="#DDE2FB"/>
<stop offset="0.488187" stop-color="#E7EAFB"/>
<stop offset="0.535354" stop-color="#F4F5FB"/>
<stop offset="0.598015" stop-color="#E0E3F5"/>
<stop offset="0.722222" stop-color="#AFB6E5"/>
<stop offset="0.909091" stop-color="#AFB6E5"/>
<stop offset="0.955133" stop-color="#BAC0EA"/>
<stop offset="1" stop-color="#C9CFF1"/>
</linearGradient>
<linearGradient id="paint24_linear_901_195" x1="185.052" y1="-23.0048" x2="311.902" y2="257.722" gradientUnits="userSpaceOnUse">
<stop stop-color="#CBD0F2"/>
<stop offset="0.191919" stop-color="#D5D9F7"/>
<stop offset="0.282828" stop-color="#DADEF9"/>
<stop offset="0.409091" stop-color="#DFE3FC"/>
<stop offset="0.434343" stop-color="#E0E4FD"/>
<stop offset="0.488187" stop-color="#EAEDFD"/>
<stop offset="0.535354" stop-color="#F7F8FD"/>
<stop offset="0.595733" stop-color="#E3E6F6"/>
<stop offset="0.718502" stop-color="#B1B8E6"/>
<stop offset="0.722222" stop-color="#AFB6E5"/>
<stop offset="0.909091" stop-color="#AFB6E5"/>
<stop offset="0.95261" stop-color="#BAC0EA"/>
<stop offset="1" stop-color="#CBD0F2"/>
</linearGradient>
<linearGradient id="paint25_linear_901_195" x1="185.009" y1="-22.9718" x2="311.853" y2="257.744" gradientUnits="userSpaceOnUse">
<stop stop-color="#CCD1F2"/>
<stop offset="0.191919" stop-color="#D6DBF7"/>
<stop offset="0.282828" stop-color="#DBDFFA"/>
<stop offset="0.409091" stop-color="#E1E6FD"/>
<stop offset="0.434343" stop-color="#E2E7FE"/>
<stop offset="0.484859" stop-color="#ECEFFE"/>
<stop offset="0.535354" stop-color="#FBFCFE"/>
<stop offset="0.592956" stop-color="#E7EAF8"/>
<stop offset="0.710068" stop-color="#B5BBE7"/>
<stop offset="0.722222" stop-color="#AFB6E5"/>
<stop offset="0.909091" stop-color="#AFB6E5"/>
<stop offset="0.951438" stop-color="#BAC0EA"/>
<stop offset="1" stop-color="#CCD1F2"/>
</linearGradient>
<linearGradient id="paint26_linear_901_195" x1="184.965" y1="-22.939" x2="311.804" y2="257.766" gradientUnits="userSpaceOnUse">
<stop stop-color="#CDD2F3"/>
<stop offset="0.434343" stop-color="#E5E9FF"/>
<stop offset="0.483426" stop-color="#EFF2FF"/>
<stop offset="0.535354" stop-color="white"/>
<stop offset="0.590454" stop-color="#EBEDF9"/>
<stop offset="0.702449" stop-color="#B9BFE8"/>
<stop offset="0.722222" stop-color="#AFB6E5"/>
<stop offset="0.909091" stop-color="#AFB6E5"/>
<stop offset="0.950338" stop-color="#BAC0EA"/>
<stop offset="1" stop-color="#CDD2F3"/>
</linearGradient>
</defs>
</svg>
