<svg width="185" height="116" viewBox="0 0 185 116" fill="none" xmlns="http://www.w3.org/2000/svg">
<g filter="url(#filter0_dd_503_28)">
<g filter="url(#filter1_dddd_503_28)">
<g filter="url(#filter2_d_503_28)">
<line x1="29" y1="63.5" x2="42" y2="63.5" stroke="white" stroke-width="3"/>
</g>
<ellipse cx="73.4428" cy="45.0542" rx="14.7252" ry="9.51931" fill="#9584FF"/>
<g filter="url(#filter3_d_503_28)">
<path d="M104.814 28.7748V65.9707L42.0714 65.9707L42.0714 30.4885C42.0714 26.9204 42.7711 23.3869 44.1308 20.088C45.2645 17.3374 46.8404 14.7906 48.796 12.5485L50.1885 10.952C51.5037 9.44421 52.987 8.09174 54.6095 6.921C58.3277 4.23808 62.6839 2.57619 67.2443 2.10088L69.3774 1.87855C71.7404 1.63227 74.1226 1.63227 76.4856 1.87855L76.874 1.91904C82.6359 2.51959 88.1846 4.42852 93.0964 7.50015L94.7905 8.55961C94.9823 8.67952 95.1584 8.8227 95.315 8.98589L97.9684 11.7515C100.598 14.4923 102.557 17.8051 103.692 21.43C104.436 23.8073 104.814 26.2838 104.814 28.7748Z" stroke="white" stroke-width="3" stroke-linecap="round" stroke-linejoin="round" shape-rendering="crispEdges"/>
</g>
<ellipse cx="72.6991" cy="44.133" rx="13.9815" ry="8.59808" fill="white"/>
<ellipse cx="59.3125" cy="23.2517" rx="2.67731" ry="6.75564" fill="white"/>
<ellipse cx="85.4907" cy="23.252" rx="2.67731" ry="6.75564" fill="white"/>
<ellipse cx="76.6043" cy="48.4831" rx="3.71849" ry="1.68891" fill="#9584FF"/>
<ellipse cx="86" cy="26.5" rx="1" ry="2.5" fill="#7A00F4"/>
<ellipse cx="60" cy="26.5" rx="1" ry="2.5" fill="#7A00F4"/>
<g filter="url(#filter4_d_503_28)">
<line x1="30.5" y1="63" x2="30.5" y2="72" stroke="white" stroke-width="3"/>
</g>
</g>
<path d="M126.545 67.7391L107.925 76.0329C107.43 76.2531 106.897 76.3154 106.375 76.2139L90.5025 73.1273C90.0215 73.0338 89.6654 72.5223 89.6654 71.9249C89.6654 71.3352 90.0127 70.8362 90.4863 70.7456L111.453 66.7313C111.707 66.6828 111.955 66.6045 112.196 66.4975L124.518 61.0211C125.004 60.8051 125.53 60.7533 126.04 60.8711C128.955 61.5436 129.319 66.5035 126.545 67.7391Z" fill="#7A00F4" stroke="#FFFAFA"/>
<rect x="0.495995" y="0.50598" width="55.2388" height="39.8525" rx="1.5" transform="matrix(0.999928 0.0119914 -0.00793898 0.999968 106.096 35.9941)" fill="#9584FF"/>
<rect x="0.495995" y="0.50598" width="55.2388" height="39.8525" rx="1.5" transform="matrix(0.999928 0.0119914 -0.00793898 0.999968 106.096 35.9941)" fill="url(#paint0_linear_503_28)"/>
<rect x="0.495995" y="0.50598" width="55.2388" height="39.8525" rx="1.5" transform="matrix(0.999928 0.0119914 -0.00793898 0.999968 106.096 35.9941)" stroke="white"/>
<path d="M72 23L72.5521 22.4847C73.3263 21.7621 74.5829 22.0267 75 23V23" stroke="white"/>
<path d="M101.5 23C101.5 30.4731 95.6627 36.5 88.5 36.5C81.3373 36.5 75.5 30.4731 75.5 23C75.5 15.5269 81.3373 9.5 88.5 9.5C95.6627 9.5 101.5 15.5269 101.5 23Z" fill="url(#paint1_linear_503_28)" fill-opacity="0.8" stroke="white"/>
<path d="M71.5 23C71.5 30.4731 65.6627 36.5 58.5 36.5C51.3373 36.5 45.5 30.4731 45.5 23C45.5 15.5269 51.3373 9.5 58.5 9.5C65.6627 9.5 71.5 15.5269 71.5 23Z" fill="url(#paint2_linear_503_28)" fill-opacity="0.8" stroke="white"/>
<path d="M110.31 60C110.136 60 110.011 59.961 109.933 59.883C109.863 59.805 109.829 59.688 109.829 59.532V51.641C109.829 51.4763 109.863 51.355 109.933 51.277C110.011 51.199 110.136 51.16 110.31 51.16H112.91C114.374 51.16 115.492 51.511 116.264 52.213C117.044 52.915 117.434 54.0373 117.434 55.58C117.434 58.5267 115.926 60 112.91 60H110.31ZM113.014 58.739C113.932 58.739 114.621 58.5007 115.081 58.024C115.549 57.5473 115.783 56.7327 115.783 55.58C115.783 54.4273 115.549 53.617 115.081 53.149C114.621 52.6723 113.932 52.434 113.014 52.434H111.493V58.739H113.014ZM121.134 60C120.96 60 120.835 59.961 120.757 59.883C120.687 59.805 120.653 59.688 120.653 59.532V51.641C120.653 51.4763 120.687 51.355 120.757 51.277C120.835 51.199 120.96 51.16 121.134 51.16H121.823C121.996 51.16 122.122 51.199 122.2 51.277C122.278 51.355 122.317 51.4763 122.317 51.641V59.532C122.317 59.688 122.278 59.805 122.2 59.883C122.13 59.961 122.005 60 121.823 60H121.134ZM130.17 60.195C128.696 60.195 127.557 59.7963 126.751 58.999C125.945 58.2017 125.542 57.062 125.542 55.58C125.542 54.1067 125.945 52.9713 126.751 52.174C127.565 51.368 128.705 50.965 130.17 50.965C130.759 50.965 131.309 51.0257 131.821 51.147C132.332 51.2683 132.757 51.4417 133.095 51.667C133.173 51.719 133.212 51.7753 133.212 51.836C133.212 51.8793 133.194 51.9313 133.16 51.992L132.783 52.642C132.731 52.72 132.679 52.759 132.627 52.759C132.601 52.759 132.544 52.7373 132.458 52.694C131.868 52.3647 131.166 52.2 130.352 52.2C129.364 52.2 128.588 52.4817 128.025 53.045C127.461 53.5997 127.18 54.4447 127.18 55.58C127.18 56.724 127.453 57.5733 127.999 58.128C128.545 58.6827 129.294 58.96 130.248 58.96C130.594 58.96 130.932 58.934 131.262 58.882C131.591 58.8213 131.86 58.739 132.068 58.635V56.23H130.352C130.178 56.23 130.057 56.1953 129.988 56.126C129.918 56.048 129.884 55.9267 129.884 55.762V55.424C129.884 55.2593 129.918 55.1467 129.988 55.086C130.057 55.0167 130.178 54.982 130.352 54.982H133.095C133.285 54.982 133.42 55.0297 133.498 55.125C133.584 55.2117 133.628 55.3503 133.628 55.541V58.973C133.628 59.103 133.615 59.2027 133.589 59.272C133.563 59.3327 133.506 59.389 133.42 59.441C132.622 59.9437 131.539 60.195 130.17 60.195ZM137.335 60C137.162 60 137.036 59.961 136.958 59.883C136.889 59.805 136.854 59.688 136.854 59.532V51.641C136.854 51.4763 136.889 51.355 136.958 51.277C137.036 51.199 137.162 51.16 137.335 51.16H138.024C138.198 51.16 138.323 51.199 138.401 51.277C138.479 51.355 138.518 51.4763 138.518 51.641V58.739H142.496C142.67 58.739 142.791 58.778 142.86 58.856C142.93 58.9253 142.964 59.0423 142.964 59.207V59.558C142.964 59.714 142.93 59.8267 142.86 59.896C142.791 59.9653 142.67 60 142.496 60H137.335ZM146.407 60C146.234 60 146.108 59.961 146.03 59.883C145.961 59.805 145.926 59.688 145.926 59.532V51.641C145.926 51.4763 145.961 51.355 146.03 51.277C146.108 51.199 146.234 51.16 146.407 51.16H147.096C147.27 51.16 147.395 51.199 147.473 51.277C147.551 51.355 147.59 51.4763 147.59 51.641V59.532C147.59 59.688 147.551 59.805 147.473 59.883C147.404 59.961 147.278 60 147.096 60H146.407ZM153.78 60C153.606 60 153.481 59.961 153.403 59.883C153.325 59.805 153.286 59.688 153.286 59.532V52.434H151.011C150.837 52.434 150.716 52.3993 150.647 52.33C150.586 52.2607 150.556 52.1437 150.556 51.979V51.628C150.556 51.4633 150.586 51.3463 150.647 51.277C150.716 51.199 150.837 51.16 151.011 51.16H157.225C157.398 51.16 157.519 51.199 157.589 51.277C157.658 51.3463 157.693 51.4633 157.693 51.628V51.979C157.693 52.1437 157.658 52.2607 157.589 52.33C157.519 52.3993 157.398 52.434 157.225 52.434H154.95V59.532C154.95 59.688 154.911 59.805 154.833 59.883C154.763 59.961 154.638 60 154.456 60H153.78Z" fill="white"/>
<path d="M11.271 86.8351C14.8724 86.8351 17.649 87.7148 19.6009 89.4742C21.5528 91.2062 22.5288 93.6529 22.5288 96.8144C22.5288 100.031 21.5666 102.533 19.6422 104.32C17.7178 106.107 14.8449 107 11.0236 107H4.34319V86.8351H11.271ZM11.1473 89.9691H7.76587V103.784H11.5184C13.9927 103.784 15.8758 103.206 17.1679 102.052C18.46 100.869 19.1061 99.1512 19.1061 96.8969C19.1061 92.2784 16.4532 89.9691 11.1473 89.9691ZM26.8822 86.8351H30.3049V107H26.8822V86.8351ZM49.846 97.1856H53.2274V104.072C51.3305 106.189 48.6089 107.247 45.0625 107.247C42.0659 107.247 39.5642 106.258 37.5573 104.278C35.5505 102.299 34.547 99.8247 34.547 96.8557C34.547 93.8866 35.5642 91.3986 37.5986 89.3918C39.6604 87.3574 42.1484 86.3402 45.0625 86.3402C47.9766 86.3402 50.3958 87.1787 52.3202 88.8557L50.5058 91.4536C49.1037 90.2715 47.3855 89.6804 45.3512 89.6804C43.2893 89.6804 41.5573 90.354 40.1553 91.701C38.7807 93.0206 38.0934 94.7388 38.0934 96.8557C38.0934 98.9725 38.7532 100.691 40.0728 102.01C41.4199 103.302 43.0831 103.948 45.0625 103.948C46.9869 103.948 48.5814 103.536 49.846 102.711V97.1856ZM57.7416 86.8351H61.1643V107H57.7416V86.8351ZM74.3549 89.9278V107H70.9322V89.9278H64.8291V86.8351H80.458V89.9278H74.3549ZM87.0323 102.423L85.0117 107H81.3828L90.29 86.8351H93.9189L102.785 107H99.156L97.1354 102.423H87.0323ZM95.7746 99.2474L92.1045 90.9588L88.4344 99.2474H95.7746ZM105.593 107V86.8351H109.016V103.784H118.212V107H105.593ZM128.449 101.351C128.449 99.1787 130.03 97.2405 133.191 95.5361C132.339 94.5464 131.762 93.7766 131.459 93.2268C131.184 92.677 131.047 91.9759 131.047 91.1237C131.047 89.6392 131.597 88.4708 132.696 87.6186C133.796 86.7663 135.157 86.3402 136.779 86.3402C138.373 86.3402 139.693 86.7526 140.738 87.5773C141.782 88.3746 142.305 89.4605 142.305 90.8351C142.305 92.7594 140.765 94.5601 137.686 96.2371C138.978 97.8041 140.229 99.2474 141.439 100.567C142.043 99.6598 142.511 98.6289 142.841 97.4742L145.191 99.1649C144.724 100.43 144.16 101.584 143.5 102.629C143.72 102.849 144.16 103.289 144.82 103.948C145.48 104.581 146.016 105.103 146.428 105.515L144.284 107.536L141.645 104.897C139.913 106.464 137.796 107.247 135.294 107.247C133.342 107.247 131.707 106.711 130.387 105.639C129.095 104.567 128.449 103.137 128.449 101.351ZM135.665 104.443C136.875 104.443 138.167 103.88 139.542 102.753C137.315 100.361 135.775 98.6564 134.923 97.6392C132.751 98.8213 131.665 100.1 131.665 101.474C131.665 102.354 132.037 103.069 132.779 103.619C133.521 104.168 134.483 104.443 135.665 104.443ZM134.263 90.9175C134.263 91.4399 134.373 91.9072 134.593 92.3196C134.841 92.732 135.308 93.3505 135.995 94.1753C138.167 93.1031 139.253 92.0997 139.253 91.1649C139.253 90.4502 139.006 89.9003 138.511 89.5155C138.043 89.1031 137.466 88.8969 136.779 88.8969C136.119 88.8969 135.528 89.1031 135.006 89.5155C134.511 89.9278 134.263 90.3952 134.263 90.9175ZM157.82 86.8351H161.242V107H157.82V86.8351ZM174.433 89.9278V107H171.01V89.9278H164.907V86.8351H180.536V89.9278H174.433Z" fill="white"/>
<path d="M19.6009 89.4742L18.9314 90.217L18.9372 90.2222L19.6009 89.4742ZM19.6422 104.32L18.9617 103.587L18.9617 103.587L19.6422 104.32ZM4.34319 107H3.34319V108H4.34319V107ZM4.34319 86.8351V85.8351H3.34319V86.8351H4.34319ZM7.76587 89.9691V88.9691H6.76587V89.9691H7.76587ZM7.76587 103.784H6.76587V104.784H7.76587V103.784ZM17.1679 102.052L17.8343 102.797L17.8429 102.789L17.1679 102.052ZM11.271 87.8351C14.7174 87.8351 17.2218 88.676 18.9314 90.217L20.2705 88.7315C18.0763 86.7536 15.0274 85.8351 11.271 85.8351V87.8351ZM18.9372 90.2222C20.6305 91.7247 21.5288 93.8731 21.5288 96.8144H23.5288C23.5288 93.4328 22.4751 90.6877 20.2646 88.7262L18.9372 90.2222ZM21.5288 96.8144C21.5288 99.8201 20.6378 102.03 18.9617 103.587L20.3226 105.052C22.4953 103.035 23.5288 100.242 23.5288 96.8144H21.5288ZM18.9617 103.587C17.2914 105.138 14.7061 106 11.0236 106V108C14.9837 108 18.1441 107.075 20.3226 105.052L18.9617 103.587ZM11.0236 106H4.34319V108H11.0236V106ZM5.34319 107V86.8351H3.34319V107H5.34319ZM4.34319 87.8351H11.271V85.8351H4.34319V87.8351ZM11.1473 88.9691H7.76587V90.9691H11.1473V88.9691ZM6.76587 89.9691V103.784H8.76587V89.9691H6.76587ZM7.76587 104.784H11.5184V102.784H7.76587V104.784ZM11.5184 104.784C14.1343 104.784 16.2937 104.174 17.8343 102.797L16.5016 101.306C15.4579 102.239 13.8511 102.784 11.5184 102.784V104.784ZM17.8429 102.789C19.3977 101.367 20.1061 99.3463 20.1061 96.8969H18.1061C18.1061 98.9561 17.5223 100.372 16.4929 101.314L17.8429 102.789ZM20.1061 96.8969C20.1061 94.3946 19.381 92.3465 17.7729 90.9468C16.1914 89.5701 13.923 88.9691 11.1473 88.9691V90.9691C13.6775 90.9691 15.3884 91.5227 16.4598 92.4553C17.5047 93.3648 18.1061 94.7807 18.1061 96.8969H20.1061ZM26.8822 86.8351V85.8351H25.8822V86.8351H26.8822ZM30.3049 86.8351H31.3049V85.8351H30.3049V86.8351ZM30.3049 107V108H31.3049V107H30.3049ZM26.8822 107H25.8822V108H26.8822V107ZM26.8822 87.8351H30.3049V85.8351H26.8822V87.8351ZM29.3049 86.8351V107H31.3049V86.8351H29.3049ZM30.3049 106H26.8822V108H30.3049V106ZM27.8822 107V86.8351H25.8822V107H27.8822ZM49.846 97.1856V96.1856H48.846V97.1856H49.846ZM53.2274 97.1856H54.2274V96.1856H53.2274V97.1856ZM53.2274 104.072L53.9722 104.74L54.2274 104.455V104.072H53.2274ZM37.5573 104.278L38.2596 103.566L38.2596 103.566L37.5573 104.278ZM37.5986 89.3918L38.3009 90.1037L38.3009 90.1036L37.5986 89.3918ZM52.3202 88.8557L53.1401 89.4283L53.6544 88.6919L52.9772 88.1018L52.3202 88.8557ZM50.5058 91.4536L49.8612 92.2181L50.6985 92.9241L51.3256 92.0262L50.5058 91.4536ZM40.1553 91.701L40.8478 92.4224L40.8481 92.4221L40.1553 91.701ZM40.0728 102.01L39.3657 102.717L39.3731 102.725L39.3806 102.732L40.0728 102.01ZM49.846 102.711L50.3923 103.549L50.846 103.253V102.711H49.846ZM49.846 98.1856H53.2274V96.1856H49.846V98.1856ZM52.2274 97.1856V104.072H54.2274V97.1856H52.2274ZM52.4827 103.405C50.8208 105.259 48.4004 106.247 45.0625 106.247V108.247C48.8174 108.247 51.8403 107.119 53.9722 104.74L52.4827 103.405ZM45.0625 106.247C42.3104 106.247 40.0666 105.349 38.2596 103.566L36.8551 104.99C39.0618 107.167 41.8215 108.247 45.0625 108.247V106.247ZM38.2596 103.566C36.4542 101.786 35.547 99.573 35.547 96.8557H33.547C33.547 100.076 34.6467 102.812 36.8551 104.99L38.2596 103.566ZM35.547 96.8557C35.547 94.1425 36.4651 91.9146 38.3009 90.1037L36.8963 88.6799C34.6633 90.8827 33.547 93.6307 33.547 96.8557H35.547ZM38.3009 90.1036C40.1744 88.2551 42.4095 87.3402 45.0625 87.3402V85.3402C41.8873 85.3402 39.1465 86.4597 36.8962 88.6799L38.3009 90.1036ZM45.0625 87.3402C47.7715 87.3402 49.9466 88.1137 51.6633 89.6096L52.9772 88.1018C50.845 86.2437 48.1817 85.3402 45.0625 85.3402V87.3402ZM51.5004 88.2831L49.686 90.881L51.3256 92.0262L53.1401 89.4283L51.5004 88.2831ZM51.1504 90.6891C49.548 89.338 47.5939 88.6804 45.3512 88.6804V90.6804C47.1772 90.6804 48.6595 91.2049 49.8612 92.2181L51.1504 90.6891ZM45.3512 88.6804C43.0482 88.6804 41.0628 89.4423 39.4625 90.9799L40.8481 92.4221C42.0519 91.2656 43.5304 90.6804 45.3512 90.6804V88.6804ZM39.4628 90.9796C37.869 92.5097 37.0934 94.4998 37.0934 96.8557H39.0934C39.0934 94.9778 39.6925 93.5315 40.8478 92.4224L39.4628 90.9796ZM37.0934 96.8557C37.0934 99.1989 37.8328 101.185 39.3657 102.717L40.7799 101.303C39.6736 100.197 39.0934 98.7461 39.0934 96.8557H37.0934ZM39.3806 102.732C40.9259 104.214 42.8423 104.948 45.0625 104.948V102.948C43.3239 102.948 41.9139 102.391 40.765 101.289L39.3806 102.732ZM45.0625 104.948C47.128 104.948 48.9259 104.505 50.3923 103.549L49.2997 101.874C48.2369 102.567 46.8458 102.948 45.0625 102.948V104.948ZM50.846 102.711V97.1856H48.846V102.711H50.846ZM57.7416 86.8351V85.8351H56.7416V86.8351H57.7416ZM61.1643 86.8351H62.1643V85.8351H61.1643V86.8351ZM61.1643 107V108H62.1643V107H61.1643ZM57.7416 107H56.7416V108H57.7416V107ZM57.7416 87.8351H61.1643V85.8351H57.7416V87.8351ZM60.1643 86.8351V107H62.1643V86.8351H60.1643ZM61.1643 106H57.7416V108H61.1643V106ZM58.7416 107V86.8351H56.7416V107H58.7416ZM74.3549 89.9278V88.9278H73.3549V89.9278H74.3549ZM74.3549 107V108H75.3549V107H74.3549ZM70.9322 107H69.9322V108H70.9322V107ZM70.9322 89.9278H71.9322V88.9278H70.9322V89.9278ZM64.8291 89.9278H63.8291V90.9278H64.8291V89.9278ZM64.8291 86.8351V85.8351H63.8291V86.8351H64.8291ZM80.458 86.8351H81.458V85.8351H80.458V86.8351ZM80.458 89.9278V90.9278H81.458V89.9278H80.458ZM73.3549 89.9278V107H75.3549V89.9278H73.3549ZM74.3549 106H70.9322V108H74.3549V106ZM71.9322 107V89.9278H69.9322V107H71.9322ZM70.9322 88.9278H64.8291V90.9278H70.9322V88.9278ZM65.8291 89.9278V86.8351H63.8291V89.9278H65.8291ZM64.8291 87.8351H80.458V85.8351H64.8291V87.8351ZM79.458 86.8351V89.9278H81.458V86.8351H79.458ZM80.458 88.9278H74.3549V90.9278H80.458V88.9278ZM87.0323 102.423V101.423H86.3806L86.1175 102.019L87.0323 102.423ZM85.0117 107V108H85.6633L85.9265 107.404L85.0117 107ZM81.3828 107L80.4681 106.596L79.8479 108H81.3828V107ZM90.29 86.8351V85.8351H89.6385L89.3753 86.431L90.29 86.8351ZM93.9189 86.8351L94.8343 86.4326L94.5716 85.8351H93.9189V86.8351ZM102.785 107V108H104.317L103.7 106.598L102.785 107ZM99.156 107L98.2412 107.404L98.5043 108H99.156V107ZM97.1354 102.423L98.0502 102.019L97.7871 101.423H97.1354V102.423ZM95.7746 99.2474V100.247H97.311L96.6889 98.8426L95.7746 99.2474ZM92.1045 90.9588L93.0188 90.5539L92.1045 88.4888L91.1901 90.5539L92.1045 90.9588ZM88.4344 99.2474L87.52 98.8426L86.8979 100.247H88.4344V99.2474ZM86.1175 102.019L84.0969 106.596L85.9265 107.404L87.9471 102.827L86.1175 102.019ZM85.0117 106H81.3828V108H85.0117V106ZM82.2975 107.404L91.2048 87.2391L89.3753 86.431L80.4681 106.596L82.2975 107.404ZM90.29 87.8351H93.9189V85.8351H90.29V87.8351ZM93.0035 87.2375L101.869 107.402L103.7 106.598L94.8343 86.4326L93.0035 87.2375ZM102.785 106H99.156V108H102.785V106ZM100.071 106.596L98.0502 102.019L96.2206 102.827L98.2412 107.404L100.071 106.596ZM97.1354 101.423H87.0323V103.423H97.1354V101.423ZM96.6889 98.8426L93.0188 90.5539L91.1901 91.3636L94.8602 99.6523L96.6889 98.8426ZM91.1901 90.5539L87.52 98.8426L89.3487 99.6523L93.0188 91.3636L91.1901 90.5539ZM88.4344 100.247H95.7746V98.2474H88.4344V100.247ZM105.593 107H104.593V108H105.593V107ZM105.593 86.8351V85.8351H104.593V86.8351H105.593ZM109.016 86.8351H110.016V85.8351H109.016V86.8351ZM109.016 103.784H108.016V104.784H109.016V103.784ZM118.212 103.784H119.212V102.784H118.212V103.784ZM118.212 107V108H119.212V107H118.212ZM106.593 107V86.8351H104.593V107H106.593ZM105.593 87.8351H109.016V85.8351H105.593V87.8351ZM108.016 86.8351V103.784H110.016V86.8351H108.016ZM109.016 104.784H118.212V102.784H109.016V104.784ZM117.212 103.784V107H119.212V103.784H117.212ZM118.212 106H105.593V108H118.212V106ZM133.191 95.5361L133.666 96.4163L134.761 95.8261L133.949 94.8836L133.191 95.5361ZM131.459 93.2268L130.565 93.674L130.574 93.6915L130.583 93.7087L131.459 93.2268ZM132.696 87.6186L132.084 86.8281L132.084 86.8281L132.696 87.6186ZM140.738 87.5773L140.118 88.3622L140.124 88.3673L140.131 88.3723L140.738 87.5773ZM137.686 96.2371L137.208 95.3589L136.144 95.9385L136.915 96.8733L137.686 96.2371ZM141.439 100.567L140.701 101.243L141.563 102.183L142.271 101.122L141.439 100.567ZM142.841 97.4742L143.425 96.6624L142.27 95.8319L141.879 97.1995L142.841 97.4742ZM145.191 99.1649L146.129 99.5116L146.393 98.7976L145.775 98.3531L145.191 99.1649ZM143.5 102.629L142.655 102.095L142.228 102.771L142.793 103.336L143.5 102.629ZM144.82 103.948L144.113 104.656L144.12 104.663L144.128 104.67L144.82 103.948ZM146.428 105.515L147.114 106.243L147.864 105.537L147.135 104.808L146.428 105.515ZM144.284 107.536L143.577 108.243L144.263 108.93L144.97 108.264L144.284 107.536ZM141.645 104.897L142.352 104.19L141.679 103.517L140.974 104.155L141.645 104.897ZM130.387 105.639L129.748 106.409L129.756 106.415L130.387 105.639ZM139.542 102.753L140.176 103.526L140.999 102.851L140.274 102.071L139.542 102.753ZM134.923 97.6392L135.69 96.997L135.164 96.3695L134.445 96.7609L134.923 97.6392ZM132.779 103.619L132.184 104.422L132.184 104.422L132.779 103.619ZM134.593 92.3196L133.711 92.7902L133.723 92.8124L133.736 92.8341L134.593 92.3196ZM135.995 94.1753L135.227 94.8154L135.732 95.4207L136.438 95.0719L135.995 94.1753ZM138.511 89.5155L137.849 90.2653L137.872 90.2858L137.897 90.3048L138.511 89.5155ZM135.006 89.5155L134.386 88.7306L134.376 88.7388L134.365 88.7472L135.006 89.5155ZM129.449 101.351C129.449 99.7446 130.605 98.0666 133.666 96.4163L132.717 94.6559C129.455 96.4145 127.449 98.6127 127.449 101.351H129.449ZM133.949 94.8836C133.104 93.9027 132.585 93.1984 132.335 92.7449L130.583 93.7087C130.938 94.3548 131.574 95.19 132.433 96.1886L133.949 94.8836ZM132.354 92.7796C132.17 92.4116 132.047 91.8773 132.047 91.1237H130.047C130.047 92.0746 130.199 92.9423 130.565 93.674L132.354 92.7796ZM132.047 91.1237C132.047 89.9244 132.472 89.0576 133.309 88.409L132.084 86.8281C130.721 87.884 130.047 89.354 130.047 91.1237H132.047ZM133.309 88.409C134.205 87.7143 135.34 87.3402 136.779 87.3402V85.3402C134.973 85.3402 133.387 85.8183 132.084 86.8281L133.309 88.409ZM136.779 87.3402C138.195 87.3402 139.283 87.7029 140.118 88.3622L141.357 86.7924C140.103 85.8023 138.552 85.3402 136.779 85.3402V87.3402ZM140.131 88.3723C140.915 88.9704 141.305 89.7556 141.305 90.8351H143.305C143.305 89.1654 142.65 87.7787 141.344 86.7824L140.131 88.3723ZM141.305 90.8351C141.305 92.1671 140.231 93.7123 137.208 95.3589L138.164 97.1153C141.299 95.4079 143.305 93.3518 143.305 90.8351H141.305ZM136.915 96.8733C138.216 98.452 139.479 99.9087 140.701 101.243L142.176 99.8913C140.979 98.5861 139.74 97.1562 138.458 95.6009L136.915 96.8733ZM142.271 101.122C142.938 100.12 143.447 98.993 143.802 97.7489L141.879 97.1995C141.575 98.2647 141.149 99.1994 140.607 100.012L142.271 101.122ZM142.257 98.286L144.607 99.9768L145.775 98.3531L143.425 96.6624L142.257 98.286ZM144.253 98.8183C143.808 100.023 143.274 101.114 142.655 102.095L144.346 103.163C145.046 102.054 145.64 100.836 146.129 99.5116L144.253 98.8183ZM142.793 103.336C143.013 103.556 143.453 103.996 144.113 104.656L145.527 103.241C144.867 102.582 144.428 102.142 144.208 101.922L142.793 103.336ZM144.128 104.67C144.785 105.3 145.316 105.817 145.721 106.223L147.135 104.808C146.716 104.389 146.174 103.861 145.512 103.226L144.128 104.67ZM145.743 104.788L143.598 106.808L144.97 108.264L147.114 106.243L145.743 104.788ZM144.991 106.829L142.352 104.19L140.938 105.604L143.577 108.243L144.991 106.829ZM140.974 104.155C139.44 105.544 137.567 106.247 135.294 106.247V108.247C138.025 108.247 140.386 107.384 142.316 105.638L140.974 104.155ZM135.294 106.247C133.536 106.247 132.133 105.769 131.018 104.863L129.756 106.415C131.28 107.653 133.149 108.247 135.294 108.247V106.247ZM131.026 104.87C129.979 104.001 129.449 102.862 129.449 101.351H127.449C127.449 103.413 128.211 105.133 129.749 106.409L131.026 104.87ZM135.665 105.443C137.193 105.443 138.704 104.733 140.176 103.526L138.908 101.979C137.631 103.027 136.557 103.443 135.665 103.443V105.443ZM140.274 102.071C138.047 99.6791 136.523 97.9919 135.69 96.997L134.157 98.2814C135.028 99.3209 136.583 101.043 138.81 103.434L140.274 102.071ZM134.445 96.7609C132.212 97.9765 130.665 99.5108 130.665 101.474H132.665C132.665 100.689 133.291 99.6661 135.401 98.5175L134.445 96.7609ZM130.665 101.474C130.665 102.689 131.202 103.695 132.184 104.422L133.374 102.815C132.871 102.443 132.665 102.019 132.665 101.474H130.665ZM132.184 104.422C133.141 105.131 134.329 105.443 135.665 105.443V103.443C134.637 103.443 133.901 103.206 133.374 102.815L132.184 104.422ZM133.263 90.9175C133.263 91.5844 133.405 92.2166 133.711 92.7902L135.476 91.849C135.342 91.5978 135.263 91.2953 135.263 90.9175H133.263ZM133.736 92.8341C134.026 93.3179 134.537 93.9872 135.227 94.8154L136.764 93.5351C136.079 92.7138 135.655 92.146 135.451 91.8051L133.736 92.8341ZM136.438 95.0719C137.563 94.5168 138.473 93.948 139.117 93.353C139.748 92.7698 140.253 92.038 140.253 91.1649H138.253C138.253 91.2266 138.215 91.4639 137.76 91.8841C137.318 92.2926 136.6 92.7616 135.553 93.2786L136.438 95.0719ZM140.253 91.1649C140.253 90.1907 139.899 89.3287 139.125 88.7261L137.897 90.3048C138.112 90.472 138.253 90.7097 138.253 91.1649H140.253ZM139.172 88.7656C138.503 88.1751 137.683 87.8969 136.779 87.8969V89.8969C137.249 89.8969 137.584 90.0311 137.849 90.2653L139.172 88.7656ZM136.779 87.8969C135.892 87.8969 135.083 88.1802 134.386 88.7306L135.625 90.3003C135.973 90.026 136.346 89.8969 136.779 89.8969V87.8969ZM134.365 88.7472C133.701 89.3012 133.263 90.0302 133.263 90.9175H135.263C135.263 90.7601 135.321 90.5545 135.646 90.2837L134.365 88.7472ZM157.82 86.8351V85.8351H156.82V86.8351H157.82ZM161.242 86.8351H162.242V85.8351H161.242V86.8351ZM161.242 107V108H162.242V107H161.242ZM157.82 107H156.82V108H157.82V107ZM157.82 87.8351H161.242V85.8351H157.82V87.8351ZM160.242 86.8351V107H162.242V86.8351H160.242ZM161.242 106H157.82V108H161.242V106ZM158.82 107V86.8351H156.82V107H158.82ZM174.433 89.9278V88.9278H173.433V89.9278H174.433ZM174.433 107V108H175.433V107H174.433ZM171.01 107H170.01V108H171.01V107ZM171.01 89.9278H172.01V88.9278H171.01V89.9278ZM164.907 89.9278H163.907V90.9278H164.907V89.9278ZM164.907 86.8351V85.8351H163.907V86.8351H164.907ZM180.536 86.8351H181.536V85.8351H180.536V86.8351ZM180.536 89.9278V90.9278H181.536V89.9278H180.536ZM173.433 89.9278V107H175.433V89.9278H173.433ZM174.433 106H171.01V108H174.433V106ZM172.01 107V89.9278H170.01V107H172.01ZM171.01 88.9278H164.907V90.9278H171.01V88.9278ZM165.907 89.9278V86.8351H163.907V89.9278H165.907ZM164.907 87.8351H180.536V85.8351H164.907V87.8351ZM179.536 86.8351V89.9278H181.536V86.8351H179.536ZM180.536 88.9278H174.433V90.9278H180.536V88.9278Z" fill="#9584FF"/>
</g>
<defs>
<filter id="filter0_dd_503_28" x="0.343201" y="0.193848" width="184.193" height="115.342" filterUnits="userSpaceOnUse" color-interpolation-filters="sRGB">
<feFlood flood-opacity="0" result="BackgroundImageFix"/>
<feColorMatrix in="SourceAlpha" type="matrix" values="0 0 0 0 0 0 0 0 0 0 0 0 0 0 0 0 0 0 127 0" result="hardAlpha"/>
<feOffset dy="4"/>
<feGaussianBlur stdDeviation="2"/>
<feComposite in2="hardAlpha" operator="out"/>
<feColorMatrix type="matrix" values="0 0 0 0 0 0 0 0 0 0 0 0 0 0 0 0 0 0 0.25 0"/>
<feBlend mode="normal" in2="BackgroundImageFix" result="effect1_dropShadow_503_28"/>
<feColorMatrix in="SourceAlpha" type="matrix" values="0 0 0 0 0 0 0 0 0 0 0 0 0 0 0 0 0 0 127 0" result="hardAlpha"/>
<feOffset dy="4"/>
<feGaussianBlur stdDeviation="2"/>
<feComposite in2="hardAlpha" operator="out"/>
<feColorMatrix type="matrix" values="0 0 0 0 0 0 0 0 0 0 0 0 0 0 0 0 0 0 0.25 0"/>
<feBlend mode="normal" in2="effect1_dropShadow_503_28" result="effect2_dropShadow_503_28"/>
<feBlend mode="normal" in="SourceGraphic" in2="effect2_dropShadow_503_28" result="shape"/>
</filter>
<filter id="filter1_dddd_503_28" x="25" y="0.193848" width="85.3143" height="79.8062" filterUnits="userSpaceOnUse" color-interpolation-filters="sRGB">
<feFlood flood-opacity="0" result="BackgroundImageFix"/>
<feColorMatrix in="SourceAlpha" type="matrix" values="0 0 0 0 0 0 0 0 0 0 0 0 0 0 0 0 0 0 127 0" result="hardAlpha"/>
<feOffset dy="4"/>
<feGaussianBlur stdDeviation="2"/>
<feComposite in2="hardAlpha" operator="out"/>
<feColorMatrix type="matrix" values="0 0 0 0 0 0 0 0 0 0 0 0 0 0 0 0 0 0 0.25 0"/>
<feBlend mode="normal" in2="BackgroundImageFix" result="effect1_dropShadow_503_28"/>
<feColorMatrix in="SourceAlpha" type="matrix" values="0 0 0 0 0 0 0 0 0 0 0 0 0 0 0 0 0 0 127 0" result="hardAlpha"/>
<feOffset dy="4"/>
<feGaussianBlur stdDeviation="2"/>
<feComposite in2="hardAlpha" operator="out"/>
<feColorMatrix type="matrix" values="0 0 0 0 0 0 0 0 0 0 0 0 0 0 0 0 0 0 0.25 0"/>
<feBlend mode="normal" in2="effect1_dropShadow_503_28" result="effect2_dropShadow_503_28"/>
<feColorMatrix in="SourceAlpha" type="matrix" values="0 0 0 0 0 0 0 0 0 0 0 0 0 0 0 0 0 0 127 0" result="hardAlpha"/>
<feOffset dy="4"/>
<feGaussianBlur stdDeviation="2"/>
<feComposite in2="hardAlpha" operator="out"/>
<feColorMatrix type="matrix" values="0 0 0 0 0 0 0 0 0 0 0 0 0 0 0 0 0 0 0.25 0"/>
<feBlend mode="normal" in2="effect2_dropShadow_503_28" result="effect3_dropShadow_503_28"/>
<feColorMatrix in="SourceAlpha" type="matrix" values="0 0 0 0 0 0 0 0 0 0 0 0 0 0 0 0 0 0 127 0" result="hardAlpha"/>
<feOffset dy="4"/>
<feGaussianBlur stdDeviation="2"/>
<feComposite in2="hardAlpha" operator="out"/>
<feColorMatrix type="matrix" values="0 0 0 0 0 0 0 0 0 0 0 0 0 0 0 0 0 0 0.25 0"/>
<feBlend mode="normal" in2="effect3_dropShadow_503_28" result="effect4_dropShadow_503_28"/>
<feBlend mode="normal" in="SourceGraphic" in2="effect4_dropShadow_503_28" result="shape"/>
</filter>
<filter id="filter2_d_503_28" x="25" y="62" width="21" height="11" filterUnits="userSpaceOnUse" color-interpolation-filters="sRGB">
<feFlood flood-opacity="0" result="BackgroundImageFix"/>
<feColorMatrix in="SourceAlpha" type="matrix" values="0 0 0 0 0 0 0 0 0 0 0 0 0 0 0 0 0 0 127 0" result="hardAlpha"/>
<feOffset dy="4"/>
<feGaussianBlur stdDeviation="2"/>
<feComposite in2="hardAlpha" operator="out"/>
<feColorMatrix type="matrix" values="0 0 0 0 0 0 0 0 0 0 0 0 0 0 0 0 0 0 0.25 0"/>
<feBlend mode="normal" in2="BackgroundImageFix" result="effect1_dropShadow_503_28"/>
<feBlend mode="normal" in="SourceGraphic" in2="effect1_dropShadow_503_28" result="shape"/>
</filter>
<filter id="filter3_d_503_28" x="36.5714" y="0.193848" width="73.7429" height="75.2769" filterUnits="userSpaceOnUse" color-interpolation-filters="sRGB">
<feFlood flood-opacity="0" result="BackgroundImageFix"/>
<feColorMatrix in="SourceAlpha" type="matrix" values="0 0 0 0 0 0 0 0 0 0 0 0 0 0 0 0 0 0 127 0" result="hardAlpha"/>
<feOffset dy="4"/>
<feGaussianBlur stdDeviation="2"/>
<feComposite in2="hardAlpha" operator="out"/>
<feColorMatrix type="matrix" values="0 0 0 0 0 0 0 0 0 0 0 0 0 0 0 0 0 0 0.25 0"/>
<feBlend mode="normal" in2="BackgroundImageFix" result="effect1_dropShadow_503_28"/>
<feBlend mode="normal" in="SourceGraphic" in2="effect1_dropShadow_503_28" result="shape"/>
</filter>
<filter id="filter4_d_503_28" x="25" y="63" width="11" height="17" filterUnits="userSpaceOnUse" color-interpolation-filters="sRGB">
<feFlood flood-opacity="0" result="BackgroundImageFix"/>
<feColorMatrix in="SourceAlpha" type="matrix" values="0 0 0 0 0 0 0 0 0 0 0 0 0 0 0 0 0 0 127 0" result="hardAlpha"/>
<feOffset dy="4"/>
<feGaussianBlur stdDeviation="2"/>
<feComposite in2="hardAlpha" operator="out"/>
<feColorMatrix type="matrix" values="0 0 0 0 0 0 0 0 0 0 0 0 0 0 0 0 0 0 0.25 0"/>
<feBlend mode="normal" in2="BackgroundImageFix" result="effect1_dropShadow_503_28"/>
<feBlend mode="normal" in="SourceGraphic" in2="effect1_dropShadow_503_28" result="shape"/>
</filter>
<linearGradient id="paint0_linear_503_28" x1="28.1194" y1="0" x2="28.1194" y2="40.8525" gradientUnits="userSpaceOnUse">
<stop stop-color="#7A00F4" stop-opacity="0.6"/>
<stop offset="0.411458" stop-color="#9584FF"/>
</linearGradient>
<linearGradient id="paint1_linear_503_28" x1="88.5" y1="9" x2="88.5" y2="37" gradientUnits="userSpaceOnUse">
<stop stop-color="#7D76AC"/>
<stop offset="1" stop-color="white" stop-opacity="0"/>
</linearGradient>
<linearGradient id="paint2_linear_503_28" x1="58.5" y1="9" x2="58.5" y2="37" gradientUnits="userSpaceOnUse">
<stop stop-color="#7D76AC"/>
<stop offset="1" stop-color="white" stop-opacity="0"/>
</linearGradient>
</defs>
</svg>
