<svg width="165" height="93" viewBox="0 0 165 93" fill="none" xmlns="http://www.w3.org/2000/svg">
<g filter="url(#filter0_dd_503_27)">
<path d="M60.668 45.0542C60.668 47.0035 59.4441 48.972 57.0407 50.5257C54.6525 52.0696 51.2633 53.0735 47.4428 53.0735C43.6223 53.0735 40.2331 52.0696 37.8449 50.5257C35.4415 48.972 34.2176 47.0035 34.2176 45.0542C34.2176 43.1049 35.4415 41.1364 37.8449 39.5827C40.2331 38.0389 43.6223 37.0349 47.4428 37.0349C51.2633 37.0349 54.6525 38.0389 57.0407 39.5827C59.4441 41.1364 60.668 43.1049 60.668 45.0542Z" stroke="black" stroke-width="3"/>
<path d="M78.8143 28.7748V65.9707L16.0714 65.9707L16.0714 30.4885C16.0714 26.9204 16.7711 23.3869 18.1308 20.088C19.2645 17.3374 20.8404 14.7906 22.796 12.5485L24.1885 10.952C25.5037 9.44421 26.987 8.09174 28.6095 6.921C32.3277 4.23808 36.6839 2.57619 41.2443 2.10088L43.3774 1.87855C45.7404 1.63227 48.1226 1.63227 50.4856 1.87855L50.874 1.91904C56.6359 2.51959 62.1846 4.42852 67.0964 7.50015L68.7905 8.55961C68.9823 8.67952 69.1584 8.8227 69.315 8.98589L71.9684 11.7515C74.5981 14.4923 76.5571 17.8051 77.6917 21.43C78.4358 23.8073 78.8143 26.2838 78.8143 28.7748Z" stroke="black" stroke-width="3" stroke-linecap="round" stroke-linejoin="round"/>
<path d="M59.1806 44.133C59.1806 45.7916 58.0819 47.5316 55.7998 48.935C53.5421 50.3234 50.3283 51.2311 46.6991 51.2311C43.0699 51.2311 39.8561 50.3234 37.5984 48.935C35.3163 47.5316 34.2176 45.7916 34.2176 44.133C34.2176 42.4744 35.3163 40.7344 37.5984 39.331C39.8561 37.9426 43.0699 37.0349 46.6991 37.0349C50.3283 37.0349 53.5421 37.9426 55.7998 39.331C58.0819 40.7344 59.1806 42.4744 59.1806 44.133Z" fill="black" stroke="black" stroke-width="3"/>
<path d="M35.4898 23.2517C35.4898 25.0704 35.1968 26.694 34.7409 27.8445C34.5123 28.4212 34.2526 28.8541 33.9898 29.1346C33.7278 29.4142 33.4986 29.5074 33.3125 29.5074C33.1264 29.5074 32.8973 29.4142 32.6353 29.1346C32.3725 28.8541 32.1128 28.4212 31.8842 27.8445C31.4283 26.694 31.1352 25.0704 31.1352 23.2517C31.1352 21.4331 31.4283 19.8095 31.8842 18.659C32.1128 18.0823 32.3725 17.6493 32.6353 17.3689C32.8973 17.0892 33.1264 16.9961 33.3125 16.9961C33.4986 16.9961 33.7278 17.0892 33.9898 17.3689C34.2526 17.6493 34.5123 18.0823 34.7409 18.659C35.1968 19.8095 35.4898 21.4331 35.4898 23.2517Z" fill="black" stroke="black"/>
<path d="M61.668 23.252C61.668 25.0706 61.3749 26.6942 60.919 27.8447C60.6904 28.4214 60.4307 28.8544 60.1679 29.1348C59.9059 29.4145 59.6768 29.5076 59.4907 29.5076C59.3046 29.5076 59.0754 29.4145 58.8134 29.1348C58.5506 28.8544 58.2909 28.4214 58.0623 27.8447C57.6064 26.6942 57.3134 25.0706 57.3134 23.252C57.3134 21.4333 57.6064 19.8097 58.0623 18.6592C58.2909 18.0825 58.5506 17.6496 58.8134 17.3691C59.0754 17.0895 59.3046 16.9963 59.4907 16.9963C59.6768 16.9963 59.9059 17.0895 60.1679 17.3691C60.4307 17.6496 60.6904 18.0825 60.919 18.6592C61.3749 19.8097 61.668 21.4333 61.668 23.252Z" fill="black" stroke="black"/>
<ellipse cx="50.6043" cy="48.4831" rx="3.71849" ry="1.68891" fill="white"/>
<ellipse cx="59.5159" cy="27.0387" rx="1.4874" ry="0.921223" fill="white"/>
<ellipse cx="33.7386" cy="27.0389" rx="1.33866" ry="0.921223" fill="white"/>
<line x1="4" y1="63.5" x2="17" y2="63.5" stroke="black" stroke-width="3"/>
<line x1="5.5" y1="63" x2="5.5" y2="72" stroke="black" stroke-width="3"/>
<path d="M97.5451 61.7391L78.9247 70.0329C78.4302 70.2531 77.8971 70.3154 77.3752 70.2139L61.5025 67.1273C61.0215 67.0338 60.6654 66.5223 60.6654 65.9249C60.6654 65.3352 61.0127 64.8362 61.4863 64.7456L82.4533 60.7313C82.7067 60.6828 82.9554 60.6045 83.1962 60.4975L95.518 55.0211C96.0041 54.8051 96.5297 54.7533 97.0402 54.8711C99.9545 55.5436 100.319 60.5035 97.5451 61.7391Z" fill="#7A00F4" stroke="black"/>
<rect x="0.495995" y="0.50598" width="55.2388" height="39.8525" rx="1.5" transform="matrix(0.999928 0.0119914 -0.00793898 0.999968 77.096 29.9941)" fill="#9584FF"/>
<rect x="0.495995" y="0.50598" width="55.2388" height="39.8525" rx="1.5" transform="matrix(0.999928 0.0119914 -0.00793898 0.999968 77.096 29.9941)" fill="url(#paint0_linear_503_27)"/>
<rect x="0.495995" y="0.50598" width="55.2388" height="39.8525" rx="1.5" transform="matrix(0.999928 0.0119914 -0.00793898 0.999968 77.096 29.9941)" stroke="black"/>
<path d="M83.072 67C82.6453 67 82.336 66.904 82.144 66.712C81.9733 66.52 81.888 66.232 81.888 65.848V46.424C81.888 46.0187 81.9733 45.72 82.144 45.528C82.336 45.336 82.6453 45.24 83.072 45.24H84.768C85.1947 45.24 85.504 45.336 85.696 45.528C85.888 45.72 85.984 46.0187 85.984 46.424V65.848C85.984 66.232 85.888 66.52 85.696 66.712C85.5253 66.904 85.216 67 84.768 67H83.072ZM102.115 67.48C98.4883 67.48 95.683 66.4987 93.699 64.536C91.715 62.5733 90.723 59.768 90.723 56.12C90.723 52.4933 91.715 49.6987 93.699 47.736C95.7043 45.752 98.5097 44.76 102.115 44.76C103.566 44.76 104.92 44.9093 106.179 45.208C107.438 45.5067 108.483 45.9333 109.315 46.488C109.507 46.616 109.603 46.7547 109.603 46.904C109.603 47.0107 109.56 47.1387 109.475 47.288L108.547 48.888C108.419 49.08 108.291 49.176 108.163 49.176C108.099 49.176 107.96 49.1227 107.747 49.016C106.296 48.2053 104.568 47.8 102.563 47.8C100.131 47.8 98.2217 48.4933 96.835 49.88C95.4483 51.2453 94.755 53.3253 94.755 56.12C94.755 58.936 95.427 61.0267 96.771 62.392C98.115 63.7573 99.9603 64.44 102.307 64.44C103.16 64.44 103.992 64.376 104.803 64.248C105.614 64.0987 106.275 63.896 106.787 63.64V57.72H102.563C102.136 57.72 101.838 57.6347 101.667 57.464C101.496 57.272 101.411 56.9733 101.411 56.568V55.736C101.411 55.3307 101.496 55.0533 101.667 54.904C101.838 54.7333 102.136 54.648 102.563 54.648H109.315C109.784 54.648 110.115 54.7653 110.307 55C110.52 55.2133 110.627 55.5547 110.627 56.024V64.472C110.627 64.792 110.595 65.0373 110.531 65.208C110.467 65.3573 110.328 65.496 110.115 65.624C108.152 66.8613 105.486 67.48 102.115 67.48ZM116.553 67C116.127 67 115.817 66.904 115.625 66.712C115.455 66.52 115.369 66.232 115.369 65.848V46.424C115.369 46.0187 115.455 45.72 115.625 45.528C115.817 45.336 116.127 45.24 116.553 45.24H118.249C118.676 45.24 118.985 45.336 119.177 45.528C119.369 45.72 119.465 46.0187 119.465 46.424V63.896H129.257C129.684 63.896 129.983 63.992 130.153 64.184C130.324 64.3547 130.409 64.6427 130.409 65.048V65.912C130.409 66.296 130.324 66.5733 130.153 66.744C129.983 66.9147 129.684 67 129.257 67H116.553ZM135.684 67C135.258 67 134.948 66.904 134.756 66.712C134.586 66.52 134.5 66.232 134.5 65.848V46.424C134.5 46.0187 134.586 45.72 134.756 45.528C134.948 45.336 135.258 45.24 135.684 45.24H137.38C137.807 45.24 138.116 45.336 138.308 45.528C138.5 45.72 138.596 46.0187 138.596 46.424V65.848C138.596 66.232 138.5 66.52 138.308 66.712C138.138 66.904 137.828 67 137.38 67H135.684ZM150.632 67C150.205 67 149.896 66.904 149.704 66.712C149.512 66.52 149.416 66.232 149.416 65.848V48.376H143.816C143.389 48.376 143.09 48.2907 142.92 48.12C142.77 47.9493 142.696 47.6613 142.696 47.256V46.392C142.696 45.9867 142.77 45.6987 142.92 45.528C143.09 45.336 143.389 45.24 143.816 45.24H159.112C159.538 45.24 159.837 45.336 160.008 45.528C160.178 45.6987 160.264 45.9867 160.264 46.392V47.256C160.264 47.6613 160.178 47.9493 160.008 48.12C159.837 48.2907 159.538 48.376 159.112 48.376H153.512V65.848C153.512 66.232 153.416 66.52 153.224 66.712C153.053 66.904 152.744 67 152.296 67H150.632Z" fill="black"/>
</g>
<defs>
<filter id="filter0_dd_503_27" x="0" y="0.193848" width="164.263" height="79.8062" filterUnits="userSpaceOnUse" color-interpolation-filters="sRGB">
<feFlood flood-opacity="0" result="BackgroundImageFix"/>
<feColorMatrix in="SourceAlpha" type="matrix" values="0 0 0 0 0 0 0 0 0 0 0 0 0 0 0 0 0 0 127 0" result="hardAlpha"/>
<feOffset dy="4"/>
<feGaussianBlur stdDeviation="2"/>
<feComposite in2="hardAlpha" operator="out"/>
<feColorMatrix type="matrix" values="0 0 0 0 0 0 0 0 0 0 0 0 0 0 0 0 0 0 0.25 0"/>
<feBlend mode="normal" in2="BackgroundImageFix" result="effect1_dropShadow_503_27"/>
<feColorMatrix in="SourceAlpha" type="matrix" values="0 0 0 0 0 0 0 0 0 0 0 0 0 0 0 0 0 0 127 0" result="hardAlpha"/>
<feOffset dy="4"/>
<feGaussianBlur stdDeviation="2"/>
<feComposite in2="hardAlpha" operator="out"/>
<feColorMatrix type="matrix" values="0 0 0 0 0 0 0 0 0 0 0 0 0 0 0 0 0 0 0.25 0"/>
<feBlend mode="normal" in2="effect1_dropShadow_503_27" result="effect2_dropShadow_503_27"/>
<feBlend mode="normal" in="SourceGraphic" in2="effect2_dropShadow_503_27" result="shape"/>
</filter>
<linearGradient id="paint0_linear_503_27" x1="28.1194" y1="0" x2="28.1194" y2="40.8525" gradientUnits="userSpaceOnUse">
<stop stop-color="#7A00F4" stop-opacity="0.6"/>
<stop offset="0.411458" stop-color="#9584FF"/>
</linearGradient>
</defs>
</svg>
