<svg width="458" height="327" viewBox="0 0 458 327" fill="none" xmlns="http://www.w3.org/2000/svg">
<rect x="2" y="3" width="439" height="228" rx="15" fill="#7A00F4" fill-opacity="0.1"/>
<path d="M3 231H440V309.017C440 317.292 433.292 324 425.017 324H22.4777L15.1307 322.568C8.08527 321.195 3 315.023 3 307.845V231Z" fill="#7A00F4" fill-opacity="0.1" stroke="#7A00F4" stroke-width="5" stroke-linejoin="round"/>
<path d="M3 270.928V18C3 9.71571 9.71573 3 18 3H425C433.284 3 440 9.71573 440 18V270.928" stroke="#7A00F4" stroke-width="5" stroke-linejoin="round"/>
<path d="M163 11.9976H286" stroke="#7A00F4" stroke-width="10" stroke-linecap="round"/>
<path d="M377 289.922H386" stroke="#7A00F4" stroke-width="10" stroke-linecap="round"/>
<path d="M400 290H414" stroke="#7A00F4" stroke-width="10" stroke-linecap="round"/>
<path d="M359 276.925H368" stroke="#7A00F4" stroke-width="10" stroke-linecap="round"/>
<path d="M382 277H391" stroke="#7A00F4" stroke-width="10" stroke-linecap="round"/>
<path d="M405 276.925H414" stroke="#7A00F4" stroke-width="10" stroke-linecap="round"/>
<path d="M343 289.922H363" stroke="#7A00F4" stroke-width="10" stroke-linecap="round"/>
<path d="M261 302.918H270" stroke="#7A00F4" stroke-width="10" stroke-linecap="round"/>
<path d="M183 289.922H192" stroke="#7A00F4" stroke-width="10" stroke-linecap="round"/>
<path d="M207 289.922H216" stroke="#7A00F4" stroke-width="10" stroke-linecap="round"/>
<path d="M230 289.922H239" stroke="#7A00F4" stroke-width="10" stroke-linecap="round"/>
<path d="M253 289.922H262" stroke="#7A00F4" stroke-width="10" stroke-linecap="round"/>
<path d="M276 289.922H285" stroke="#7A00F4" stroke-width="10" stroke-linecap="round"/>
<path d="M299 289.922H308" stroke="#7A00F4" stroke-width="10" stroke-linecap="round"/>
<path d="M322 289.922H331" stroke="#7A00F4" stroke-width="10" stroke-linecap="round"/>
<path d="M183 289.922H192" stroke="#7A00F4" stroke-width="10" stroke-linecap="round"/>
<path d="M45 289.922H54" stroke="#7A00F4" stroke-width="10" stroke-linecap="round"/>
<path d="M68 289.922H77" stroke="#7A00F4" stroke-width="10" stroke-linecap="round"/>
<path d="M91 289.922H100" stroke="#7A00F4" stroke-width="10" stroke-linecap="round"/>
<path d="M61.0001 303H65.0001M45.5 303H49" stroke="#7A00F4" stroke-width="10" stroke-linecap="round"/>
<path d="M77 302.918H86" stroke="#7A00F4" stroke-width="10" stroke-linecap="round"/>
<path d="M100 302.918H109" stroke="#7A00F4" stroke-width="10" stroke-linecap="round"/>
<path d="M114 289.922H123" stroke="#7A00F4" stroke-width="10" stroke-linecap="round"/>
<path d="M137 289.922H146" stroke="#7A00F4" stroke-width="10" stroke-linecap="round"/>
<path d="M160 289.922H169" stroke="#7A00F4" stroke-width="10" stroke-linecap="round"/>
<path d="M195 276.925H204" stroke="#7A00F4" stroke-width="10" stroke-linecap="round"/>
<path d="M219 276.925H228" stroke="#7A00F4" stroke-width="10" stroke-linecap="round"/>
<path d="M242 276.925H251" stroke="#7A00F4" stroke-width="10" stroke-linecap="round"/>
<path d="M265 276.925H274" stroke="#7A00F4" stroke-width="10" stroke-linecap="round"/>
<path d="M288 276.925H297" stroke="#7A00F4" stroke-width="10" stroke-linecap="round"/>
<path d="M311 276.925H320" stroke="#7A00F4" stroke-width="10" stroke-linecap="round"/>
<path d="M334 276.925H343" stroke="#7A00F4" stroke-width="10" stroke-linecap="round"/>
<path d="M195 276.925H204" stroke="#7A00F4" stroke-width="10" stroke-linecap="round"/>
<path d="M45 277L66 276.925" stroke="#7A00F4" stroke-width="10" stroke-linecap="round"/>
<path d="M80 276.925H89" stroke="#7A00F4" stroke-width="10" stroke-linecap="round"/>
<path d="M103 276.925H112" stroke="#7A00F4" stroke-width="10" stroke-linecap="round"/>
<path d="M126 276.925H135" stroke="#7A00F4" stroke-width="10" stroke-linecap="round"/>
<path d="M149 276.925H158" stroke="#7A00F4" stroke-width="10" stroke-linecap="round"/>
<path d="M172 276.925H181" stroke="#7A00F4" stroke-width="10" stroke-linecap="round"/>
<path d="M122 302.918H245" stroke="#7A00F4" stroke-width="10" stroke-linecap="round"/>
<path d="M261 302.918H270" stroke="#7A00F4" stroke-width="10" stroke-linecap="round"/>
<path d="M285 302.918H294" stroke="#7A00F4" stroke-width="10" stroke-linecap="round"/>
<path d="M308 302.918H317" stroke="#7A00F4" stroke-width="10" stroke-linecap="round"/>
<path d="M331 302.918H340" stroke="#7A00F4" stroke-width="10" stroke-linecap="round"/>
<path d="M354 302.918H363" stroke="#7A00F4" stroke-width="10" stroke-linecap="round"/>
<path d="M377 302.918H386" stroke="#7A00F4" stroke-width="10" stroke-linecap="round"/>
<path d="M400 302.918L414 303" stroke="#7A00F4" stroke-width="10" stroke-linecap="round"/>
<path d="M371 264H380" stroke="#7A00F4" stroke-width="10" stroke-linecap="round"/>
<path d="M346 264H355" stroke="#7A00F4" stroke-width="10" stroke-linecap="round"/>
<path d="M359 251H368" stroke="#7A00F4" stroke-width="10" stroke-linecap="round"/>
<path d="M384 251H393" stroke="#7A00F4" stroke-width="10" stroke-linecap="round"/>
<path d="M405 251H414" stroke="#7A00F4" stroke-width="10" stroke-linecap="round"/>
<path d="M183 263.997H192" stroke="#7A00F4" stroke-width="10" stroke-linecap="round"/>
<path d="M207 263.997H216" stroke="#7A00F4" stroke-width="10" stroke-linecap="round"/>
<path d="M230 263.997H239" stroke="#7A00F4" stroke-width="10" stroke-linecap="round"/>
<path d="M253 263.997H262" stroke="#7A00F4" stroke-width="10" stroke-linecap="round"/>
<path d="M276 263.997H285" stroke="#7A00F4" stroke-width="10" stroke-linecap="round"/>
<path d="M299 263.997H308" stroke="#7A00F4" stroke-width="10" stroke-linecap="round"/>
<path d="M322 263.997H331" stroke="#7A00F4" stroke-width="10" stroke-linecap="round"/>
<path d="M183 263.997H192" stroke="#7A00F4" stroke-width="10" stroke-linecap="round"/>
<path d="M45 264H54" stroke="#7A00F4" stroke-width="10" stroke-linecap="round"/>
<path d="M45.5 251H46.5" stroke="#7A00F4" stroke-width="10" stroke-linecap="round"/>
<path d="M68 263.997H77" stroke="#7A00F4" stroke-width="10" stroke-linecap="round"/>
<path d="M91 263.997H100" stroke="#7A00F4" stroke-width="10" stroke-linecap="round"/>
<path d="M114 263.997H123" stroke="#7A00F4" stroke-width="10" stroke-linecap="round"/>
<path d="M137 263.997H146" stroke="#7A00F4" stroke-width="10" stroke-linecap="round"/>
<path d="M160 263.997H169" stroke="#7A00F4" stroke-width="10" stroke-linecap="round"/>
<path d="M195 251H204" stroke="#7A00F4" stroke-width="10" stroke-linecap="round"/>
<path d="M219 251H228" stroke="#7A00F4" stroke-width="10" stroke-linecap="round"/>
<path d="M242 251H251" stroke="#7A00F4" stroke-width="10" stroke-linecap="round"/>
<path d="M265 251H274" stroke="#7A00F4" stroke-width="10" stroke-linecap="round"/>
<path d="M288 251H297" stroke="#7A00F4" stroke-width="10" stroke-linecap="round"/>
<path d="M311 251H320" stroke="#7A00F4" stroke-width="10" stroke-linecap="round"/>
<path d="M334 251H343" stroke="#7A00F4" stroke-width="10" stroke-linecap="round"/>
<path d="M195 251H204" stroke="#7A00F4" stroke-width="10" stroke-linecap="round"/>
<path d="M58 251H67" stroke="#7A00F4" stroke-width="10" stroke-linecap="round"/>
<path d="M80 251H89" stroke="#7A00F4" stroke-width="10" stroke-linecap="round"/>
<path d="M103 251H112" stroke="#7A00F4" stroke-width="10" stroke-linecap="round"/>
<path d="M126 251H135" stroke="#7A00F4" stroke-width="10" stroke-linecap="round"/>
<path d="M149 251H158" stroke="#7A00F4" stroke-width="10" stroke-linecap="round"/>
<path d="M172 251H181" stroke="#7A00F4" stroke-width="10" stroke-linecap="round"/>
<path d="M396 264L414 264" stroke="#7A00F4" stroke-width="10" stroke-linecap="round"/>
<mask id="path-86-outside-1_904_203" maskUnits="userSpaceOnUse" x="9" y="89" width="426" height="97" fill="black">
<rect fill="white" x="9" y="89" width="426" height="97"/>
<path d="M11.856 92.656H45.52C51.408 92.656 56.784 93.5947 61.648 95.472C66.512 97.3493 70.6507 100.165 74.064 103.92C77.4773 107.589 80.1227 112.24 82 117.872C83.8773 123.419 84.816 129.904 84.816 137.328C84.816 144.752 83.8773 151.28 82 156.912C80.1227 162.459 77.4773 167.109 74.064 170.864C70.6507 174.533 66.512 177.307 61.648 179.184C56.784 181.061 51.408 182 45.52 182H11.856V92.656ZM45.52 164.72C51.3227 164.72 55.888 163.099 59.216 159.856C62.544 156.613 64.208 151.408 64.208 144.24V130.416C64.208 123.248 62.544 118.043 59.216 114.8C55.888 111.557 51.3227 109.936 45.52 109.936H31.312V164.72H45.52ZM97.65 182V166.512H109.17V108.144H97.65V92.656H140.146V108.144H128.626V166.512H140.146V182H97.65ZM213.06 167.792H212.42C211.737 172.315 209.433 176.069 205.508 179.056C201.583 182.043 196.249 183.536 189.508 183.536C184.388 183.536 179.609 182.555 175.172 180.592C170.735 178.629 166.852 175.728 163.524 171.888C160.196 168.048 157.593 163.269 155.716 157.552C153.839 151.835 152.9 145.221 152.9 137.712C152.9 130.203 153.881 123.547 155.844 117.744C157.807 111.941 160.537 107.077 164.036 103.152C167.62 99.2267 171.887 96.24 176.836 94.192C181.785 92.144 187.289 91.12 193.348 91.12C201.369 91.12 208.281 92.8693 214.084 96.368C219.887 99.7813 224.452 104.944 227.78 111.856L211.908 120.944C210.543 117.445 208.409 114.501 205.508 112.112C202.607 109.637 198.553 108.4 193.348 108.4C187.289 108.4 182.468 110.149 178.884 113.648C175.3 117.147 173.508 122.651 173.508 130.16V144.496C173.508 151.92 175.3 157.424 178.884 161.008C182.468 164.507 187.289 166.256 193.348 166.256C195.737 166.256 197.999 166 200.132 165.488C202.265 164.891 204.143 164.037 205.764 162.928C207.385 161.733 208.623 160.325 209.476 158.704C210.415 157.083 210.884 155.163 210.884 152.944V148.464H194.244V132.208H229.444V182H213.06V167.792ZM248.356 182V92.656H267.812V164.72H301.86V182H248.356ZM312.775 182V166.512H324.295V108.144H312.775V92.656H355.271V108.144H343.751V166.512H355.271V182H312.775ZM408.229 109.936V182H388.773V109.936H364.581V92.656H432.421V109.936H408.229Z"/>
</mask>
<path d="M11.856 92.656H45.52C51.408 92.656 56.784 93.5947 61.648 95.472C66.512 97.3493 70.6507 100.165 74.064 103.92C77.4773 107.589 80.1227 112.24 82 117.872C83.8773 123.419 84.816 129.904 84.816 137.328C84.816 144.752 83.8773 151.28 82 156.912C80.1227 162.459 77.4773 167.109 74.064 170.864C70.6507 174.533 66.512 177.307 61.648 179.184C56.784 181.061 51.408 182 45.52 182H11.856V92.656ZM45.52 164.72C51.3227 164.72 55.888 163.099 59.216 159.856C62.544 156.613 64.208 151.408 64.208 144.24V130.416C64.208 123.248 62.544 118.043 59.216 114.8C55.888 111.557 51.3227 109.936 45.52 109.936H31.312V164.72H45.52ZM97.65 182V166.512H109.17V108.144H97.65V92.656H140.146V108.144H128.626V166.512H140.146V182H97.65ZM213.06 167.792H212.42C211.737 172.315 209.433 176.069 205.508 179.056C201.583 182.043 196.249 183.536 189.508 183.536C184.388 183.536 179.609 182.555 175.172 180.592C170.735 178.629 166.852 175.728 163.524 171.888C160.196 168.048 157.593 163.269 155.716 157.552C153.839 151.835 152.9 145.221 152.9 137.712C152.9 130.203 153.881 123.547 155.844 117.744C157.807 111.941 160.537 107.077 164.036 103.152C167.62 99.2267 171.887 96.24 176.836 94.192C181.785 92.144 187.289 91.12 193.348 91.12C201.369 91.12 208.281 92.8693 214.084 96.368C219.887 99.7813 224.452 104.944 227.78 111.856L211.908 120.944C210.543 117.445 208.409 114.501 205.508 112.112C202.607 109.637 198.553 108.4 193.348 108.4C187.289 108.4 182.468 110.149 178.884 113.648C175.3 117.147 173.508 122.651 173.508 130.16V144.496C173.508 151.92 175.3 157.424 178.884 161.008C182.468 164.507 187.289 166.256 193.348 166.256C195.737 166.256 197.999 166 200.132 165.488C202.265 164.891 204.143 164.037 205.764 162.928C207.385 161.733 208.623 160.325 209.476 158.704C210.415 157.083 210.884 155.163 210.884 152.944V148.464H194.244V132.208H229.444V182H213.06V167.792ZM248.356 182V92.656H267.812V164.72H301.86V182H248.356ZM312.775 182V166.512H324.295V108.144H312.775V92.656H355.271V108.144H343.751V166.512H355.271V182H312.775ZM408.229 109.936V182H388.773V109.936H364.581V92.656H432.421V109.936H408.229Z" fill="#7A00F4"/>
<path d="M11.856 92.656V90.656H9.856V92.656H11.856ZM61.648 95.472L62.3682 93.6061V93.6061L61.648 95.472ZM74.064 103.92L72.5841 105.265L72.5918 105.274L72.5996 105.282L74.064 103.92ZM82 117.872L80.1026 118.504L80.1056 118.513L82 117.872ZM82 156.912L83.8945 157.553L83.8974 157.544L82 156.912ZM74.064 170.864L75.5284 172.226L75.5362 172.218L75.5439 172.209L74.064 170.864ZM61.648 179.184L62.3682 181.05L61.648 179.184ZM11.856 182H9.856V184H11.856V182ZM59.216 114.8L60.6117 113.368L59.216 114.8ZM31.312 109.936V107.936H29.312V109.936H31.312ZM31.312 164.72H29.312V166.72H31.312V164.72ZM11.856 94.656H45.52V90.656H11.856V94.656ZM45.52 94.656C51.1934 94.656 56.3214 95.5599 60.9279 97.3378L62.3682 93.6061C57.2466 91.6294 51.6226 90.656 45.52 90.656V94.656ZM60.9279 97.3378C65.5098 99.1063 69.386 101.747 72.5841 105.265L75.5439 102.575C71.9154 98.5833 67.5142 95.5923 62.3682 93.6061L60.9279 97.3378ZM72.5996 105.282C75.7855 108.707 78.2993 113.094 80.1026 118.504L83.8974 117.24C81.9461 111.386 79.1692 106.472 75.5284 102.558L72.5996 105.282ZM80.1056 118.513C81.8971 123.806 82.816 130.066 82.816 137.328H86.816C86.816 129.742 85.8575 123.031 83.8944 117.231L80.1056 118.513ZM82.816 137.328C82.816 144.589 81.8974 150.895 80.1026 156.28L83.8974 157.544C85.8573 151.665 86.816 144.915 86.816 137.328H82.816ZM80.1056 156.271C78.303 161.597 75.7859 165.997 72.5841 169.519L75.5439 172.209C79.1687 168.222 81.9423 163.321 83.8944 157.553L80.1056 156.271ZM72.5996 169.502C69.4014 172.94 65.5205 175.546 60.9279 177.318L62.3682 181.05C67.5035 179.068 71.9 176.127 75.5284 172.226L72.5996 169.502ZM60.9279 177.318C56.3214 179.096 51.1934 180 45.52 180V184C51.6226 184 57.2466 183.027 62.3682 181.05L60.9279 177.318ZM45.52 180H11.856V184H45.52V180ZM13.856 182V92.656H9.856V182H13.856ZM45.52 166.72C51.7076 166.72 56.8227 164.98 60.6117 161.288L57.8203 158.424C54.9533 161.217 50.9378 162.72 45.52 162.72V166.72ZM60.6117 161.288C64.4922 157.508 66.208 151.66 66.208 144.24H62.208C62.208 151.156 60.5958 155.719 57.8203 158.424L60.6117 161.288ZM66.208 144.24V130.416H62.208V144.24H66.208ZM66.208 130.416C66.208 122.996 64.4922 117.148 60.6117 113.368L57.8203 116.232C60.5958 118.937 62.208 123.5 62.208 130.416H66.208ZM60.6117 113.368C56.8227 109.676 51.7076 107.936 45.52 107.936V111.936C50.9378 111.936 54.9533 113.439 57.8203 116.232L60.6117 113.368ZM45.52 107.936H31.312V111.936H45.52V107.936ZM29.312 109.936V164.72H33.312V109.936H29.312ZM31.312 166.72H45.52V162.72H31.312V166.72ZM97.65 182H95.65V184H97.65V182ZM97.65 166.512V164.512H95.65V166.512H97.65ZM109.17 166.512V168.512H111.17V166.512H109.17ZM109.17 108.144H111.17V106.144H109.17V108.144ZM97.65 108.144H95.65V110.144H97.65V108.144ZM97.65 92.656V90.656H95.65V92.656H97.65ZM140.146 92.656H142.146V90.656H140.146V92.656ZM140.146 108.144V110.144H142.146V108.144H140.146ZM128.626 108.144V106.144H126.626V108.144H128.626ZM128.626 166.512H126.626V168.512H128.626V166.512ZM140.146 166.512H142.146V164.512H140.146V166.512ZM140.146 182V184H142.146V182H140.146ZM99.65 182V166.512H95.65V182H99.65ZM97.65 168.512H109.17V164.512H97.65V168.512ZM111.17 166.512V108.144H107.17V166.512H111.17ZM109.17 106.144H97.65V110.144H109.17V106.144ZM99.65 108.144V92.656H95.65V108.144H99.65ZM97.65 94.656H140.146V90.656H97.65V94.656ZM138.146 92.656V108.144H142.146V92.656H138.146ZM140.146 106.144H128.626V110.144H140.146V106.144ZM126.626 108.144V166.512H130.626V108.144H126.626ZM128.626 168.512H140.146V164.512H128.626V168.512ZM138.146 166.512V182H142.146V166.512H138.146ZM140.146 180H97.65V184H140.146V180ZM213.06 167.792H215.06V165.792H213.06V167.792ZM212.42 167.792V165.792H210.699L210.442 167.493L212.42 167.792ZM205.508 179.056L204.297 177.464L205.508 179.056ZM175.172 180.592L174.363 182.421L175.172 180.592ZM163.524 171.888L162.013 173.198L163.524 171.888ZM155.716 157.552L157.616 156.928L155.716 157.552ZM155.844 117.744L157.739 118.385L155.844 117.744ZM164.036 103.152L162.559 101.803L162.551 101.812L162.543 101.821L164.036 103.152ZM176.836 94.192L177.601 96.04L176.836 94.192ZM214.084 96.368L213.051 98.0808L213.061 98.0864L213.07 98.0919L214.084 96.368ZM227.78 111.856L228.774 113.592L230.39 112.666L229.582 110.988L227.78 111.856ZM211.908 120.944L210.045 121.671L210.888 123.832L212.902 122.68L211.908 120.944ZM205.508 112.112L204.21 113.634L204.223 113.645L204.237 113.656L205.508 112.112ZM178.884 113.648L180.281 115.079L178.884 113.648ZM178.884 161.008L177.47 162.422L177.478 162.431L177.487 162.439L178.884 161.008ZM200.132 165.488L200.599 167.433L200.635 167.424L200.671 167.414L200.132 165.488ZM205.764 162.928L206.893 164.579L206.922 164.559L206.95 164.538L205.764 162.928ZM209.476 158.704L207.745 157.702L207.725 157.737L207.706 157.773L209.476 158.704ZM210.884 148.464H212.884V146.464H210.884V148.464ZM194.244 148.464H192.244V150.464H194.244V148.464ZM194.244 132.208V130.208H192.244V132.208H194.244ZM229.444 132.208H231.444V130.208H229.444V132.208ZM229.444 182V184H231.444V182H229.444ZM213.06 182H211.06V184H213.06V182ZM213.06 165.792H212.42V169.792H213.06V165.792ZM210.442 167.493C209.844 171.459 207.844 174.766 204.297 177.464L206.719 180.648C211.023 177.373 213.631 173.17 214.398 168.091L210.442 167.493ZM204.297 177.464C200.828 180.104 195.97 181.536 189.508 181.536V185.536C196.529 185.536 202.338 183.981 206.719 180.648L204.297 177.464ZM189.508 181.536C184.651 181.536 180.15 180.607 175.981 178.763L174.363 182.421C179.069 184.503 184.125 185.536 189.508 185.536V181.536ZM175.981 178.763C171.826 176.925 168.18 174.206 165.035 170.578L162.013 173.198C165.524 177.25 169.643 180.334 174.363 182.421L175.981 178.763ZM165.035 170.578C161.91 166.972 159.426 162.439 157.616 156.928L153.816 158.176C155.761 164.1 158.482 169.124 162.013 173.198L165.035 170.578ZM157.616 156.928C155.819 151.455 154.9 145.06 154.9 137.712H150.9C150.9 145.383 151.858 152.214 153.816 158.176L157.616 156.928ZM154.9 137.712C154.9 130.373 155.859 123.94 157.739 118.385L153.949 117.103C151.903 123.153 150.9 130.032 150.9 137.712H154.9ZM157.739 118.385C159.629 112.795 162.236 108.177 165.529 104.483L162.543 101.821C158.838 105.978 155.984 111.087 153.949 117.103L157.739 118.385ZM165.513 104.501C168.898 100.794 172.92 97.9767 177.601 96.04L176.071 92.344C170.853 94.5033 166.342 97.6597 162.559 101.803L165.513 104.501ZM177.601 96.04C182.278 94.1047 187.517 93.12 193.348 93.12V89.12C187.061 89.12 181.293 90.1833 176.071 92.344L177.601 96.04ZM193.348 93.12C201.073 93.12 207.613 94.8021 213.051 98.0808L215.117 94.6552C208.949 90.9366 201.666 89.12 193.348 89.12V93.12ZM213.07 98.0919C218.485 101.277 222.797 106.117 225.978 112.724L229.582 110.988C226.107 103.771 221.288 98.2856 215.098 94.6441L213.07 98.0919ZM226.786 110.12L210.914 119.208L212.902 122.68L228.774 113.592L226.786 110.12ZM213.771 120.217C212.281 116.4 209.944 113.175 206.779 110.568L204.237 113.656C206.874 115.828 208.804 118.491 210.045 121.671L213.771 120.217ZM206.806 110.59C203.429 107.71 198.855 106.4 193.348 106.4V110.4C198.251 110.4 201.784 111.564 204.21 113.634L206.806 110.59ZM193.348 106.4C186.884 106.4 181.52 108.28 177.487 112.217L180.281 115.079C183.416 112.019 187.695 110.4 193.348 110.4V106.4ZM177.487 112.217C173.361 116.244 171.508 122.379 171.508 130.16H175.508C175.508 122.923 177.239 118.049 180.281 115.079L177.487 112.217ZM171.508 130.16V144.496H175.508V130.16H171.508ZM171.508 144.496C171.508 152.205 173.367 158.319 177.47 162.422L180.298 159.594C177.233 156.529 175.508 151.635 175.508 144.496H171.508ZM177.487 162.439C181.52 166.376 186.884 168.256 193.348 168.256V164.256C187.695 164.256 183.416 162.637 180.281 159.577L177.487 162.439ZM193.348 168.256C195.881 168.256 198.3 167.985 200.599 167.433L199.665 163.543C197.698 164.015 195.594 164.256 193.348 164.256V168.256ZM200.671 167.414C202.988 166.765 205.07 165.826 206.893 164.579L204.635 161.277C203.215 162.249 201.542 163.016 199.593 163.562L200.671 167.414ZM206.95 164.538C208.791 163.182 210.238 161.55 211.246 159.635L207.706 157.773C207.007 159.101 205.98 160.284 204.578 161.318L206.95 164.538ZM211.207 159.706C212.352 157.728 212.884 155.449 212.884 152.944H208.884C208.884 154.876 208.477 156.437 207.745 157.702L211.207 159.706ZM212.884 152.944V148.464H208.884V152.944H212.884ZM210.884 146.464H194.244V150.464H210.884V146.464ZM196.244 148.464V132.208H192.244V148.464H196.244ZM194.244 134.208H229.444V130.208H194.244V134.208ZM227.444 132.208V182H231.444V132.208H227.444ZM229.444 180H213.06V184H229.444V180ZM215.06 182V167.792H211.06V182H215.06ZM248.356 182H246.356V184H248.356V182ZM248.356 92.656V90.656H246.356V92.656H248.356ZM267.812 92.656H269.812V90.656H267.812V92.656ZM267.812 164.72H265.812V166.72H267.812V164.72ZM301.86 164.72H303.86V162.72H301.86V164.72ZM301.86 182V184H303.86V182H301.86ZM250.356 182V92.656H246.356V182H250.356ZM248.356 94.656H267.812V90.656H248.356V94.656ZM265.812 92.656V164.72H269.812V92.656H265.812ZM267.812 166.72H301.86V162.72H267.812V166.72ZM299.86 164.72V182H303.86V164.72H299.86ZM301.86 180H248.356V184H301.86V180ZM312.775 182H310.775V184H312.775V182ZM312.775 166.512V164.512H310.775V166.512H312.775ZM324.295 166.512V168.512H326.295V166.512H324.295ZM324.295 108.144H326.295V106.144H324.295V108.144ZM312.775 108.144H310.775V110.144H312.775V108.144ZM312.775 92.656V90.656H310.775V92.656H312.775ZM355.271 92.656H357.271V90.656H355.271V92.656ZM355.271 108.144V110.144H357.271V108.144H355.271ZM343.751 108.144V106.144H341.751V108.144H343.751ZM343.751 166.512H341.751V168.512H343.751V166.512ZM355.271 166.512H357.271V164.512H355.271V166.512ZM355.271 182V184H357.271V182H355.271ZM314.775 182V166.512H310.775V182H314.775ZM312.775 168.512H324.295V164.512H312.775V168.512ZM326.295 166.512V108.144H322.295V166.512H326.295ZM324.295 106.144H312.775V110.144H324.295V106.144ZM314.775 108.144V92.656H310.775V108.144H314.775ZM312.775 94.656H355.271V90.656H312.775V94.656ZM353.271 92.656V108.144H357.271V92.656H353.271ZM355.271 106.144H343.751V110.144H355.271V106.144ZM341.751 108.144V166.512H345.751V108.144H341.751ZM343.751 168.512H355.271V164.512H343.751V168.512ZM353.271 166.512V182H357.271V166.512H353.271ZM355.271 180H312.775V184H355.271V180ZM408.229 109.936V107.936H406.229V109.936H408.229ZM408.229 182V184H410.229V182H408.229ZM388.773 182H386.773V184H388.773V182ZM388.773 109.936H390.773V107.936H388.773V109.936ZM364.581 109.936H362.581V111.936H364.581V109.936ZM364.581 92.656V90.656H362.581V92.656H364.581ZM432.421 92.656H434.421V90.656H432.421V92.656ZM432.421 109.936V111.936H434.421V109.936H432.421ZM406.229 109.936V182H410.229V109.936H406.229ZM408.229 180H388.773V184H408.229V180ZM390.773 182V109.936H386.773V182H390.773ZM388.773 107.936H364.581V111.936H388.773V107.936ZM366.581 109.936V92.656H362.581V109.936H366.581ZM364.581 94.656H432.421V90.656H364.581V94.656ZM430.421 92.656V109.936H434.421V92.656H430.421ZM432.421 107.936H408.229V111.936H432.421V107.936Z" fill="#7A00F4" mask="url(#path-86-outside-1_904_203)"/>
</svg>
